<?xml version="1.0" encoding="UTF-8" standalone="no"?>
<svg
   xmlns:dc="http://purl.org/dc/elements/1.1/"
   xmlns:cc="http://creativecommons.org/ns#"
   xmlns:rdf="http://www.w3.org/1999/02/22-rdf-syntax-ns#"
   xmlns:svg="http://www.w3.org/2000/svg"
   xmlns="http://www.w3.org/2000/svg"
   id="svg5364"
   version="1.1"
   viewBox="0 0 838.3609 912.66522"
   height="912.66522mm"
   width="838.3609mm">
  <defs
     id="defs5358">
    <mask
       id="mask5357"
       maskUnits="userSpaceOnUse">
      <path
         style="fill:#ffffff;fill-opacity:1;fill-rule:evenodd;stroke:none;stroke-width:1.31225884px;stroke-linecap:butt;stroke-linejoin:miter;stroke-opacity:1"
         d="m 456.91994,1178.9849 -12.81758,27.4527 14.82952,32.0501 -71.00292,48.415 13.10209,21.5446 10.91073,89.8693 -65.08499,92.0688 18.08456,-90.0796 -35.04393,-76.1731 -37.77869,-24.2173 -78.74065,31.4969 -39.37034,-11.1566 -56.4297,41.9947 75.56511,49.6375 81.42154,-40.6492 8.15292,69.8623 -29.34385,28.5186 -12.09223,83.933 -39.86758,20.6118 -83.48475,-7.7323 -68.96792,-60.7026 47.187464,102.3997 83.284856,35.4777 25.23794,-0.164 -0.0297,-0.4219 h 65.81797 l 35.79746,50.8119 47.126,47.1234 h -0.006 0.009 l -67.17895,79.8836 -15.7394,23.606 61.66582,61.668 24.27685,-57.742 74.14254,-67.581 -21.45233,-97.9711 -37.86582,-49.8941 84.25109,-22.5775 12.58435,25.448 35.58733,98.1146 64.3699,-17.2491 61.90435,-5.5951 32.90895,-57.0011 -77.43613,-37.2844 -20.33493,28.8672 -30.17938,2.6247 -4.59031,-43.3041 -9.19093,-31.4867 6.56129,-19.0354 5.24643,-9.8367 106.94654,39.3623 82.01363,-62.3297 3.28317,-36.7408 -93.78286,-93.7851 -128.10924,34.326 -30.17938,-21.2164 -12.97139,-102.1921 87.56762,-72.9381 -5.90005,-9.465 -13.19948,-15.1986 -31.8684,-7.7887 z"
         id="path5359" />
    </mask>
  </defs>
  <metadata
     id="metadata5361">
    <rdf:RDF>
      <cc:Work
         rdf:about="">
        <dc:format>image/svg+xml</dc:format>
        <dc:type
           rdf:resource="http://purl.org/dc/dcmitype/StillImage" />
        <dc:title></dc:title>
      </cc:Work>
    </rdf:RDF>
  </metadata>
  <g
     transform="translate(377.13201,-1198.7785)"
     id="g5243">
    <g
       transform="translate(-349.25,123.03125)"
       mask="url(#mask5357)"
       id="g5344">
      <path
         id="path5180"
         d="m 125.47992,1477.0512 -2.58433,5.5351 2.98999,6.4621 -14.31592,9.7617 2.6417,4.3439 2.19987,18.1198 -13.12272,18.5633 3.64629,-18.1622 -7.065716,-15.3583 -7.617106,-4.8829 -15.876031,6.3505 -7.938019,-2.2494 -11.377599,8.4672 15.235761,10.0081 16.41657,-8.1959 1.643828,14.086 -5.916436,5.75 -2.438093,16.923 -8.038269,4.1558 -16.832564,-1.559 -13.905611,-12.2391 9.514147,20.6463 16.792257,7.1531 5.088578,-0.033 -0.0062,-0.085 h 13.270506 l 7.217648,10.2449 9.501749,9.5012 h -0.001 0.002 l -13.544913,16.1065 -3.17345,4.7595 12.433343,12.4338 4.8948,-11.6422 14.94895,-13.626 -4.32531,-19.7533 -7.63468,-10.0599 16.98708,-4.5522 2.53731,5.131 7.17527,19.7823 12.97854,-3.4779 12.48142,-1.1281 6.63525,-11.4928 -15.61301,-7.5174 -4.10001,5.8203 -6.0849,0.5292 -0.92552,-8.7312 -1.85312,-6.3485 1.32292,-3.838 1.05781,-1.9833 21.56303,7.9364 16.53595,-12.5672 0.66196,-7.4078 -18.90892,-18.9094 -25.82994,6.921 -6.0849,-4.2778 -2.61535,-20.6044 17.65577,-14.7061 -1.18959,-1.9084 -2.66134,-3.0644 -6.42545,-1.5704 z"
         style="fill:#54585f;fill-opacity:1;fill-rule:evenodd;stroke:none;stroke-width:1;stroke-linecap:round;stroke-linejoin:round;stroke-miterlimit:4;stroke-dasharray:none;stroke-opacity:1" />
      <path
         style="fill:#bbc0bf;fill-opacity:1;fill-rule:evenodd;stroke:none;stroke-width:1;stroke-linecap:round;stroke-linejoin:round;stroke-miterlimit:4;stroke-dasharray:none;stroke-opacity:1"
         d="m 215.28248,1510.7471 -3.50136,-5.0056 -7.0914,-0.6416 -1.29594,-17.2788 -5.08271,0.1158 -16.79217,-7.1548 -9.51486,-20.6463 13.90569,12.2389 16.83365,1.5601 8.03724,-4.1552 2.43825,-16.9243 5.91706,-5.7498 -1.64398,-14.0869 -16.28524,8.1906 -1.11034,18.315 -13.02078,-5.6194 -2.02132,-7.9988 -13.43672,-10.5729 0.42008,-9.0393 9.76632,-13.7979 17.55228,-5.923 -22.63734,-2.0837 -14.59097,10.966 -2.51568,4.4233 0.0762,0.037 -6.63528,11.4926 -12.48118,1.1282 -12.97915,3.4782 5e-4,-9e-4 h 3.6e-4 l -7.17617,-19.7835 -2.53511,-5.1281 -16.98464,4.5507 7.63501,10.0601 4.32596,19.7592 19.26956,6.1308 12.52942,-1.5818 -4.55114,16.9873 -5.71231,-0.3681 -20.71953,-3.6772 -3.47736,12.9787 -5.26373,11.3733 6.63542,11.4927 14.3168,-9.7626 -2.9906,-6.4609 2.58418,-5.5343 8.02417,3.5641 6.4246,1.5694 2.66231,3.0647 1.18867,1.9078 -17.6546,14.7059 2.61547,20.6041 6.08444,4.2772 25.83049,-6.9209 6.92117,-25.8299 6.7471,-3.1308 19.15166,8.0373 3.90791,22.6434 2.2476,-0.076 3.98451,-0.7725 4.57271,-4.7794 z"
         id="path5182" />
      <path
         id="path5184"
         d="m 141.20059,1571.6703 6.08565,-0.5295 4.10134,-5.8205 15.61185,7.5171 2.44107,-4.4597 14.59233,-10.965 22.63765,2.083 -17.55205,5.9233 -9.76791,13.7983 -0.42011,9.038 13.43775,10.5738 2.02094,7.9992 13.02161,5.6197 1.04935,-18.1987 -15.30609,-10.1191 11.37694,-8.4666 7.93782,2.2489 15.87476,-6.3501 7.61822,4.8834 7.06618,15.3569 -3.64668,18.1622 13.12321,-18.5627 -2.20135,-18.1191 -2.57285,-4.3903 -0.0701,0.047 -6.63524,-11.4927 5.26354,-11.3731 3.47736,-12.9794 5.3e-4,9e-4 -1.8e-4,3e-4 20.7211,3.677 5.70862,0.3686 4.5513,-16.9845 -12.52981,1.5821 -19.27495,-6.1332 -14.94421,13.6225 -4.89483,11.6417 -12.43586,-12.435 3.17494,-4.763 13.54431,-16.105 -9.5012,-9.5009 -7.21771,-10.2451 -13.27068,10e-5 1.29626,17.28 7.09061,0.6405 3.50075,5.0051 -7.09868,5.1671 -4.57144,4.7792 -3.98527,0.7732 -2.24654,0.076 -3.90838,-22.6423 -19.15141,-8.037 -6.74638,3.1307 -6.92157,25.8303 18.90876,18.9088 -0.66219,7.4086 -16.53634,12.5672 -21.56372,-7.9374 -1.05798,1.9845 -1.32325,3.8369 1.85273,6.3498 z"
         style="fill:#ecedef;fill-opacity:1;fill-rule:evenodd;stroke:none;stroke-width:1;stroke-linecap:round;stroke-linejoin:round;stroke-miterlimit:4;stroke-dasharray:none;stroke-opacity:1" />
      <path
         style="fill:#54585f;fill-opacity:1;fill-rule:evenodd;stroke:none;stroke-width:1;stroke-linecap:round;stroke-linejoin:round;stroke-miterlimit:4;stroke-dasharray:none;stroke-opacity:1"
         d="m 254.25866,1394.2569 -2.58433,5.5351 2.98999,6.4621 -14.31592,9.7617 2.6417,4.3439 2.19987,18.1198 -13.12272,18.5633 3.64629,-18.1622 -7.06571,-15.3583 -7.61711,-4.8829 -15.87603,6.3505 -7.93802,-2.2494 -11.3776,8.4672 15.23576,10.0081 16.41657,-8.1959 1.64383,14.086 -5.91643,5.75 -2.4381,16.923 -8.03827,4.1558 -16.83256,-1.559 -13.90562,-12.239 9.51415,20.6462 16.79225,7.1531 5.08858,-0.033 -0.006,-0.085 h 13.27051 l 7.21765,10.245 9.50174,9.5011 h -0.001 0.002 l -13.54492,16.1066 -3.17345,4.7594 12.43334,12.4339 4.8948,-11.6423 14.94895,-13.6259 -4.32531,-19.7534 -7.63468,-10.0598 16.98708,-4.5523 2.53731,5.131 7.17527,19.7824 12.97854,-3.478 12.48142,-1.1281 6.63525,-11.4928 -15.61301,-7.5173 -4.10001,5.8203 -6.0849,0.5291 -0.92552,-8.7311 -1.85312,-6.3485 1.32293,-3.8381 1.05781,-1.9832 21.56303,7.9364 16.53595,-12.5672 0.66196,-7.4078 -18.90892,-18.9094 -25.82994,6.921 -6.0849,-4.2778 -2.61535,-20.6044 17.65577,-14.7061 -1.18959,-1.9085 -2.66134,-3.0643 -6.42545,-1.5704 z"
         id="path5186" />
      <path
         style="fill:#ecedef;fill-opacity:1;fill-rule:evenodd;stroke:none;stroke-width:1;stroke-linecap:round;stroke-linejoin:round;stroke-miterlimit:4;stroke-dasharray:none;stroke-opacity:1"
         d="m 269.97933,1488.876 6.08565,-0.5295 4.10134,-5.8205 15.61185,7.5171 2.44107,-4.4597 14.59233,-10.965 22.63765,2.083 -17.55205,5.9233 -9.76791,13.7983 -0.42011,9.038 13.43775,10.5738 2.02094,7.9992 13.02161,5.6197 1.04935,-18.1987 -15.30609,-10.1191 11.37694,-8.4666 7.93782,2.2489 15.87476,-6.3501 7.61822,4.8834 7.06618,15.3569 -3.64668,18.1622 13.12321,-18.5627 -2.20135,-18.1191 -2.57285,-4.3903 -0.0701,0.047 -6.63524,-11.4927 5.26354,-11.3731 3.47736,-12.9794 5.3e-4,9e-4 -1.8e-4,3e-4 20.7211,3.677 5.70862,0.3686 4.5513,-16.9845 -12.52981,1.5821 -19.27495,-6.1332 -14.94421,13.6225 -4.89483,11.6417 -12.43586,-12.435 3.17494,-4.763 13.54431,-16.105 -9.5012,-9.5009 -7.21771,-10.2451 -13.27068,1e-4 1.29626,17.28 7.09061,0.6405 3.50075,5.0051 -7.09868,5.1671 -4.57144,4.7792 -3.98527,0.7732 -2.24654,0.076 -3.90838,-22.6423 -19.15141,-8.037 -6.74638,3.1307 -6.92157,25.8303 18.90877,18.9088 -0.6622,7.4086 -16.53634,12.5672 -21.56371,-7.9374 -1.05798,1.9845 -1.32325,3.8369 1.85273,6.3498 z"
         id="path5188" />
      <path
         style="fill:#bbc0bf;fill-opacity:1;fill-rule:evenodd;stroke:none;stroke-width:1;stroke-linecap:round;stroke-linejoin:round;stroke-miterlimit:4;stroke-dasharray:none;stroke-opacity:1"
         d="m 351.37191,1580.883 -3.50136,-5.0056 -7.0914,-0.6416 -1.29594,-17.2788 -5.08271,0.1158 -16.79217,-7.1548 -9.51486,-20.6463 13.90569,12.2389 16.83365,1.5601 8.03724,-4.1552 2.43825,-16.9243 5.91706,-5.7498 -1.64398,-14.0869 -16.28524,8.1906 -1.11034,18.315 -13.02078,-5.6194 -2.02132,-7.9988 -13.43672,-10.5729 0.42008,-9.0393 9.76632,-13.7979 17.55228,-5.923 -22.63734,-2.0837 -14.59097,10.966 -2.51568,4.4233 0.0762,0.037 -6.63528,11.4926 -12.48118,1.1282 -12.97915,3.4782 5e-4,-9e-4 h 3.6e-4 l -7.17618,-19.7835 -2.5351,-5.128 -16.98464,4.5506 7.63501,10.0601 4.32596,19.7592 19.26956,6.1308 12.52942,-1.5818 -4.55114,16.9873 -5.71231,-0.368 -20.71953,-3.6773 -3.47736,12.9787 -5.26373,11.3733 6.63542,11.4927 14.3168,-9.7626 -2.9906,-6.4609 2.58418,-5.5343 8.02417,3.5641 6.4246,1.5694 2.66231,3.0647 1.18867,1.9078 -17.6546,14.7059 2.61547,20.6041 6.08444,4.2772 25.83049,-6.9209 6.92117,-25.8299 6.7471,-3.1308 19.15166,8.0373 3.90791,22.6434 2.2476,-0.076 3.98451,-0.7725 4.57271,-4.7794 z"
         id="path5191" />
      <path
         style="fill:#54585f;fill-opacity:1;fill-rule:evenodd;stroke:none;stroke-width:1;stroke-linecap:round;stroke-linejoin:round;stroke-miterlimit:4;stroke-dasharray:none;stroke-opacity:1"
         d="m 390.35136,1464.3847 -2.58433,5.5351 2.98999,6.4621 -14.31592,9.7617 2.6417,4.3439 2.19987,18.1198 -13.12272,18.5633 3.64629,-18.1622 -7.06572,-15.3583 -7.6171,-4.8829 -15.87603,6.3505 -7.93802,-2.2494 -11.3776,8.4672 15.23576,10.0081 16.41657,-8.1959 1.64383,14.086 -5.91644,5.75 -2.43809,16.923 -8.03827,4.1558 -16.83256,-1.559 -13.90562,-12.2391 9.51415,20.6463 16.79226,7.1531 5.08858,-0.033 -0.006,-0.085 h 13.2705 l 7.21765,10.2449 9.50175,9.5012 h -0.001 0.002 l -13.54491,16.1065 -3.17345,4.7595 12.43334,12.4338 4.8948,-11.6422 14.94895,-13.626 -4.32531,-19.7533 -7.63468,-10.0599 16.98708,-4.5522 2.53731,5.131 7.17527,19.7823 12.97854,-3.4779 12.48142,-1.1281 6.63525,-11.4928 -15.61301,-7.5174 -4.10001,5.8203 -6.0849,0.5292 -0.92552,-8.7312 -1.85312,-6.3485 1.32292,-3.838 1.05781,-1.9833 21.56303,7.9364 16.53595,-12.5672 0.66196,-7.4078 -18.90892,-18.9094 -25.82994,6.921 -6.0849,-4.2778 -2.61535,-20.6044 17.65577,-14.7061 -1.18959,-1.9084 -2.66134,-3.0644 -6.42545,-1.5704 z"
         id="path5193" />
      <path
         style="fill:#54585f;fill-opacity:1;fill-rule:evenodd;stroke:none;stroke-width:1;stroke-linecap:round;stroke-linejoin:round;stroke-miterlimit:4;stroke-dasharray:none;stroke-opacity:1"
         d="m 118.16567,1324.1284 -2.58433,5.5351 2.98999,6.4621 -14.31592,9.7617 2.6417,4.3439 2.19987,18.1198 -13.12272,18.5633 3.64629,-18.1622 -7.065716,-15.3583 -7.617106,-4.8829 -15.876031,6.3505 -7.938019,-2.2494 -11.377599,8.4672 15.235761,10.0081 16.41657,-8.1959 1.643828,14.086 -5.916436,5.75 -2.438093,16.923 -8.038269,4.1558 -16.832564,-1.559 -13.905611,-12.2391 9.514147,20.6463 16.792257,7.1531 5.088578,-0.033 -0.0062,-0.085 h 13.270506 l 7.217648,10.2449 9.501749,9.5012 h -0.001 0.002 l -13.544913,16.1065 -3.17345,4.7595 12.433343,12.4338 4.8948,-11.6422 14.94895,-13.626 -4.32531,-19.7533 -7.63468,-10.0599 16.98708,-4.5522 2.53731,5.131 7.17527,19.7823 12.97854,-3.4779 12.48142,-1.1281 6.63525,-11.4928 -15.61301,-7.5174 -4.10001,5.8203 -6.0849,0.5292 -0.92552,-8.7312 -1.85312,-6.3485 1.32292,-3.838 1.05781,-1.9833 21.56303,7.9364 16.53595,-12.5672 0.66196,-7.4078 -18.90892,-18.9094 -25.82994,6.921 -6.0849,-4.2778 -2.61535,-20.6044 17.65577,-14.7061 -1.18959,-1.9084 -2.66134,-3.0644 -6.42545,-1.5704 z"
         id="path5195" />
      <path
         style="fill:#ecedef;fill-opacity:1;fill-rule:evenodd;stroke:none;stroke-width:1;stroke-linecap:round;stroke-linejoin:round;stroke-miterlimit:4;stroke-dasharray:none;stroke-opacity:1"
         d="m 133.88634,1418.7475 6.08565,-0.5295 4.10134,-5.8205 15.61185,7.5171 2.44107,-4.4597 14.59233,-10.965 22.63765,2.083 -17.55205,5.9233 -9.76791,13.7983 -0.42011,9.038 13.43775,10.5738 2.02094,7.9992 13.02161,5.6197 1.04935,-18.1987 -15.30609,-10.1191 11.37694,-8.4666 7.93782,2.2489 15.87476,-6.3501 7.61822,4.8834 7.06618,15.3569 -3.64668,18.1622 13.12321,-18.5627 -2.20135,-18.1191 -2.57285,-4.3903 -0.0701,0.047 -6.63524,-11.4927 5.26354,-11.3731 3.47736,-12.9794 5.3e-4,9e-4 -1.8e-4,3e-4 20.7211,3.677 5.70862,0.3686 4.5513,-16.9845 -12.52981,1.5821 -19.27495,-6.1332 -14.94421,13.6225 -4.89483,11.6417 -12.43586,-12.435 3.17494,-4.763 13.54431,-16.105 -9.5012,-9.5009 -7.21771,-10.2451 -13.27068,10e-5 1.29626,17.28 7.09061,0.6405 3.50075,5.0051 -7.09868,5.1671 -4.57144,4.7792 -3.98527,0.7732 -2.24654,0.076 -3.90838,-22.6423 -19.15141,-8.037 -6.74638,3.1307 -6.92157,25.8303 18.90876,18.9088 -0.66219,7.4086 -16.53634,12.5672 -21.56372,-7.9374 -1.05798,1.9845 -1.32325,3.8369 1.85273,6.3498 z"
         id="path5197" />
      <path
         id="path5199"
         d="m 344.05766,1427.9602 -3.50136,-5.0056 -7.0914,-0.6416 -1.29594,-17.2788 -5.08271,0.1158 -16.79217,-7.1548 -9.51486,-20.6463 13.90569,12.2389 16.83365,1.5601 8.03724,-4.1552 2.43825,-16.9243 5.91706,-5.7498 -1.64398,-14.0869 -16.28524,8.1906 -1.11034,18.315 -13.02078,-5.6194 -2.02132,-7.9988 -13.43672,-10.5729 0.42008,-9.0393 9.76632,-13.7979 17.55228,-5.923 -22.63734,-2.0837 -14.59097,10.966 -2.51568,4.4233 0.0762,0.037 -6.63528,11.4926 -12.48118,1.1282 -12.97915,3.4782 5e-4,-9e-4 h 3.6e-4 l -7.17618,-19.7835 -2.5351,-5.128 -16.98464,4.5506 7.63501,10.0601 4.32596,19.7592 19.26956,6.1308 12.52942,-1.5818 -4.55114,16.9873 -5.71231,-0.368 -20.71953,-3.6773 -3.47736,12.9787 -5.26373,11.3733 6.63542,11.4927 14.3168,-9.7626 -2.9906,-6.4609 2.58418,-5.5343 8.02417,3.5641 6.4246,1.5694 2.66231,3.0647 1.18867,1.9078 -17.6546,14.7059 2.61547,20.6041 6.08444,4.2772 25.83049,-6.9209 6.92117,-25.8299 6.7471,-3.1308 19.15166,8.0373 3.90791,22.6434 2.2476,-0.076 3.98451,-0.7725 4.57271,-4.7794 z"
         style="fill:#bbc0bf;fill-opacity:1;fill-rule:evenodd;stroke:none;stroke-width:1;stroke-linecap:round;stroke-linejoin:round;stroke-miterlimit:4;stroke-dasharray:none;stroke-opacity:1" />
      <path
         id="path5201"
         d="m 383.03711,1311.4619 -2.58433,5.5351 2.98999,6.4621 -14.31592,9.7617 2.6417,4.3439 2.19987,18.1198 -13.12272,18.5633 3.64629,-18.1622 -7.06572,-15.3583 -7.6171,-4.8829 -15.87603,6.3505 -7.93802,-2.2494 -11.3776,8.4672 15.23576,10.0081 16.41657,-8.1959 1.64383,14.086 -5.91644,5.75 -2.43809,16.923 -8.03827,4.1558 -16.83256,-1.559 -13.90562,-12.2391 9.51415,20.6463 16.79226,7.1531 5.08858,-0.033 -0.006,-0.085 h 13.2705 l 7.21765,10.2449 9.50175,9.5012 h -10e-4 0.002 l -13.54491,16.1065 -3.17345,4.7595 12.43334,12.4338 4.8948,-11.6422 14.94895,-13.626 -4.32531,-19.7533 -7.63468,-10.0599 16.98708,-4.5522 2.53731,5.131 7.17527,19.7823 12.97854,-3.4779 12.48142,-1.1281 6.63525,-11.4928 -15.61301,-7.5174 -4.10001,5.8203 -6.0849,0.5292 -0.92552,-8.7312 -1.85312,-6.3485 1.32292,-3.838 1.05781,-1.9833 21.56303,7.9364 16.53595,-12.5672 0.66196,-7.4078 -18.90892,-18.9094 -25.82994,6.921 -6.0849,-4.2778 -2.61535,-20.6044 17.65577,-14.7061 -1.18959,-1.9084 -2.66134,-3.0644 -6.42545,-1.5704 z"
         style="fill:#54585f;fill-opacity:1;fill-rule:evenodd;stroke:none;stroke-width:1;stroke-linecap:round;stroke-linejoin:round;stroke-miterlimit:4;stroke-dasharray:none;stroke-opacity:1" />
      <path
         style="fill:#54585f;fill-opacity:1;fill-rule:evenodd;stroke:none;stroke-width:1;stroke-linecap:round;stroke-linejoin:round;stroke-miterlimit:4;stroke-dasharray:none;stroke-opacity:1"
         d="m 132.7898,1629.9692 -2.58433,5.5351 2.98999,6.4621 -14.31592,9.7617 2.6417,4.3439 2.19987,18.1198 -13.12272,18.5633 3.64629,-18.1622 -7.06571,-15.3583 -7.61711,-4.8829 -15.87603,6.3505 -7.93802,-2.2494 -11.3776,8.4672 15.23576,10.0081 16.41657,-8.1959 1.64383,14.086 -5.91644,5.75 -2.43809,16.923 -8.03827,4.1558 -16.83256,-1.559 -13.90561,-12.2391 9.51414,20.6463 16.79226,7.1531 5.08858,-0.033 -0.006,-0.085 h 13.27051 l 7.21764,10.2449 9.50175,9.5012 h -0.001 0.002 l -13.54491,16.1065 -3.17345,4.7595 12.43334,12.4338 4.8948,-11.6422 14.94895,-13.626 -4.32531,-19.7533 -7.63468,-10.0599 16.98708,-4.5522 2.53731,5.131 7.17527,19.7823 12.97854,-3.4779 12.48142,-1.1281 6.63525,-11.4928 -15.61301,-7.5174 -4.10001,5.8203 -6.0849,0.5292 -0.92552,-8.7312 -1.85312,-6.3485 1.32292,-3.838 1.05781,-1.9833 21.56303,7.9364 16.53595,-12.5672 0.66196,-7.4078 -18.90892,-18.9094 -25.82994,6.921 -6.0849,-4.2778 -2.61535,-20.6044 17.65577,-14.7061 -1.18959,-1.9084 -2.66134,-3.0644 -6.42545,-1.5704 z"
         id="path5203" />
      <path
         id="path5205"
         d="m 358.6819,1733.7993 -3.50136,-5.0056 -7.0914,-0.6416 -1.29594,-17.2788 -5.08271,0.1158 -16.79217,-7.1548 -9.51486,-20.6463 13.90569,12.2389 16.83365,1.5601 8.03724,-4.1552 2.43825,-16.9243 5.91706,-5.7498 -1.64398,-14.0869 -16.28524,8.1906 -1.11034,18.315 -13.02078,-5.6194 -2.02132,-7.9989 -13.43672,-10.5728 0.42008,-9.0393 9.76632,-13.7979 17.55228,-5.923 -22.63734,-2.0837 -14.59097,10.966 -2.51568,4.4233 0.0762,0.037 -6.63528,11.4926 -12.48118,1.1282 -12.97915,3.4782 5e-4,-9e-4 h 3.6e-4 l -7.17617,-19.7835 -2.53511,-5.1281 -16.98464,4.5507 7.63501,10.0601 4.32596,19.7592 19.26956,6.1308 12.52942,-1.5818 -4.55114,16.9873 -5.71231,-0.3681 -20.71953,-3.6772 -3.47736,12.9787 -5.26373,11.3733 6.63542,11.4927 14.3168,-9.7626 -2.9906,-6.4609 2.58418,-5.5344 8.02417,3.5642 6.4246,1.5694 2.66231,3.0647 1.18867,1.9077 -17.6546,14.7059 2.61547,20.6041 6.08444,4.2772 25.83049,-6.9209 6.92117,-25.8299 6.7471,-3.1308 19.15166,8.0373 3.90791,22.6434 2.2476,-0.076 3.98451,-0.7725 4.57271,-4.7794 z"
         style="fill:#bbc0bf;fill-opacity:1;fill-rule:evenodd;stroke:none;stroke-width:1;stroke-linecap:round;stroke-linejoin:round;stroke-miterlimit:4;stroke-dasharray:none;stroke-opacity:1" />
      <path
         style="fill:#ecedef;fill-opacity:1;fill-rule:evenodd;stroke:none;stroke-width:1;stroke-linecap:round;stroke-linejoin:round;stroke-miterlimit:4;stroke-dasharray:none;stroke-opacity:1"
         d="m 148.51057,1724.5866 6.08565,-0.5295 4.10134,-5.8205 15.61185,7.5171 2.44107,-4.4597 14.59233,-10.965 22.63765,2.083 -17.55205,5.9233 -9.76791,13.7983 -0.42011,9.038 13.43775,10.5738 2.02094,7.9992 13.02161,5.6197 1.04935,-18.1987 -15.30609,-10.1191 11.37694,-8.4666 7.93782,2.2489 15.87476,-6.3501 7.61822,4.8834 7.06618,15.3569 -3.64668,18.1622 13.12322,-18.5627 -2.20135,-18.1191 -2.57285,-4.3903 -0.0701,0.047 -6.63525,-11.4927 5.26355,-11.3731 3.47736,-12.9794 5.3e-4,9e-4 -1.8e-4,3e-4 20.7211,3.677 5.70862,0.3686 4.5513,-16.9845 -12.52981,1.5821 -19.27495,-6.1332 -14.94422,13.6225 -4.89483,11.6417 -12.43586,-12.435 3.17494,-4.763 13.54431,-16.105 -9.5012,-9.5009 -7.21771,-10.2451 -13.27068,10e-5 1.29626,17.28 7.09061,0.6405 3.50075,5.0051 -7.09868,5.1671 -4.57144,4.7792 -3.98527,0.7732 -2.24654,0.076 -3.90838,-22.6423 -19.15141,-8.037 -6.74638,3.1307 -6.92157,25.8303 18.90876,18.9088 -0.66219,7.4086 -16.53634,12.5672 -21.56372,-7.9374 -1.05798,1.9845 -1.32325,3.8369 1.85273,6.3498 z"
         id="path5207" />
      <path
         id="path5209"
         d="m 397.65736,1617.3086 -2.58433,5.5351 2.98998,6.4621 -14.31592,9.7617 2.6417,4.3439 2.19988,18.1198 -13.12273,18.5633 3.64629,-18.1622 -7.06571,-15.3583 -7.61711,-4.8829 -15.87603,6.3505 -7.93802,-2.2494 -11.3776,8.4672 15.23576,10.0081 16.41657,-8.1959 1.64383,14.086 -5.91643,5.75 -2.4381,16.923 -8.03827,4.1558 -16.83257,-1.559 -13.90561,-12.239 9.51415,20.6462 16.79225,7.1531 5.08858,-0.033 -0.006,-0.085 h 13.27051 l 7.21765,10.245 9.50174,9.5011 h -10e-4 0.002 l -13.54492,16.1066 -3.17345,4.7594 12.43334,12.4339 4.8948,-11.6423 14.94896,-13.6259 -4.32531,-19.7534 -7.63469,-10.0598 16.98709,-4.5523 2.53731,5.131 7.17527,19.7824 12.97854,-3.478 12.48142,-1.1281 6.63525,-11.4928 -15.61301,-7.5173 -4.10001,5.8203 -6.0849,0.5291 -0.92552,-8.7311 -1.85312,-6.3485 1.32293,-3.8381 1.05781,-1.9832 21.56303,7.9364 16.53595,-12.5672 0.66196,-7.4078 -18.90892,-18.9094 -25.82994,6.9211 -6.0849,-4.2779 -2.61535,-20.6043 17.65577,-14.7062 -1.18959,-1.9085 -2.66134,-3.0643 -6.42545,-1.5704 z"
         style="fill:#54585f;fill-opacity:1;fill-rule:evenodd;stroke:none;stroke-width:1;stroke-linecap:round;stroke-linejoin:round;stroke-miterlimit:4;stroke-dasharray:none;stroke-opacity:1" />
      <path
         id="path5211"
         d="m 277.28907,1641.792 6.08564,-0.5295 4.10134,-5.8205 15.61185,7.5171 2.44108,-4.4597 14.59233,-10.965 22.63765,2.083 -17.55205,5.9233 -9.76791,13.7983 -0.42011,9.038 13.43775,10.5738 2.02094,7.9992 13.02161,5.6197 1.04935,-18.1987 -15.30609,-10.1191 11.37694,-8.4666 7.93782,2.2489 15.87476,-6.3501 7.61822,4.8834 7.06617,15.3569 -3.64668,18.1622 13.12321,-18.5627 -2.20135,-18.1191 -2.57285,-4.3903 -0.0701,0.047 -6.63524,-11.4927 5.26354,-11.3731 3.47736,-12.9794 5.3e-4,9e-4 -1.8e-4,3e-4 20.7211,3.677 5.70862,0.3686 4.5513,-16.9845 -12.52981,1.5821 -19.27495,-6.1332 -14.94421,13.6225 -4.89483,11.6417 -12.43586,-12.435 3.17494,-4.763 13.54431,-16.105 -9.5012,-9.5009 -7.21771,-10.2451 -13.27068,10e-5 1.29626,17.28 7.09061,0.6405 3.50075,5.0051 -7.09868,5.1671 -4.57144,4.7792 -3.98527,0.7732 -2.24654,0.076 -3.90838,-22.6423 -19.15141,-8.037 -6.74638,3.1307 -6.92157,25.8303 18.90877,18.9088 -0.6622,7.4086 -16.53634,12.5672 -21.56371,-7.9374 -1.05798,1.9845 -1.32325,3.8369 1.85273,6.3498 z"
         style="fill:#ecedef;fill-opacity:1;fill-rule:evenodd;stroke:none;stroke-width:1;stroke-linecap:round;stroke-linejoin:round;stroke-miterlimit:4;stroke-dasharray:none;stroke-opacity:1" />
      <path
         id="path5213"
         d="m 487.46039,1651.0047 -3.50136,-5.0056 -7.0914,-0.6416 -1.29594,-17.2788 -5.08271,0.1158 -16.79217,-7.1548 -9.51486,-20.6463 13.90569,12.2389 16.83365,1.5601 8.03723,-4.1552 2.43825,-16.9243 5.91706,-5.7498 -1.64398,-14.0869 -16.28524,8.1906 -1.11034,18.315 -13.02078,-5.6194 -2.02132,-7.9988 -13.43672,-10.5729 0.42008,-9.0393 9.76632,-13.7979 17.55228,-5.923 -22.63734,-2.0837 -14.59097,10.966 -2.51568,4.4233 0.0762,0.037 -6.63528,11.4926 -12.48118,1.1282 -12.97915,3.4782 5e-4,-9e-4 h 3.6e-4 l -7.17618,-19.7835 -2.5351,-5.128 -16.98464,4.5506 7.63501,10.0601 4.32596,19.7592 19.26956,6.1308 12.52942,-1.5818 -4.55114,16.9873 -5.71231,-0.368 -20.71953,-3.6773 -3.47736,12.9787 -5.26373,11.3733 6.63542,11.4927 14.3168,-9.7626 -2.9906,-6.4609 2.58418,-5.5343 8.02418,3.5641 6.4246,1.5694 2.6623,3.0647 1.18868,1.9078 -17.65461,14.7059 2.61548,20.6041 6.08443,4.2772 25.83049,-6.9209 6.92117,-25.8299 6.7471,-3.1308 19.15166,8.0373 3.90791,22.6434 2.2476,-0.076 3.98451,-0.7725 4.57271,-4.7794 z"
         style="fill:#bbc0bf;fill-opacity:1;fill-rule:evenodd;stroke:none;stroke-width:1;stroke-linecap:round;stroke-linejoin:round;stroke-miterlimit:4;stroke-dasharray:none;stroke-opacity:1" />
      <path
         id="path5215"
         d="m 526.43704,1534.5145 -2.58434,5.5352 2.98999,6.462 -14.31592,9.7617 2.6417,4.344 2.19987,18.1198 -13.12272,18.5632 3.64629,-18.1621 -7.06572,-15.3584 -7.6171,-4.8829 -15.87603,6.3505 -7.93802,-2.2494 -11.3776,8.4673 15.23577,10.0081 16.41656,-8.196 1.64383,14.0861 -5.91644,5.75 -2.43809,16.9229 -8.03827,4.1558 -16.83256,-1.5589 -13.90562,-12.2392 9.51415,20.6464 16.79226,7.1531 5.08857,-0.033 -0.006,-0.085 h 13.2705 l 7.21764,10.2449 9.50176,9.5012 h -0.001 0.002 l -13.54491,16.1065 -3.17345,4.7595 12.43334,12.4337 4.8948,-11.6421 14.94896,-13.6261 -4.32531,-19.7532 -7.63468,-10.06 16.98707,-4.5522 2.53731,5.1311 7.17528,19.7822 12.97854,-3.4778 12.48142,-1.1281 6.63525,-11.4928 -15.61301,-7.5174 -4.10001,5.8203 -6.0849,0.5292 -0.92552,-8.7312 -1.85312,-6.3485 1.32292,-3.838 1.05781,-1.9833 21.56303,7.9364 16.53595,-12.5672 0.66196,-7.4078 -18.90892,-18.9094 -25.82994,6.921 -6.0849,-4.2778 -2.61535,-20.6044 17.65577,-14.7061 -1.18959,-1.9084 -2.66134,-3.0644 -6.42545,-1.5704 z"
         style="fill:#54585f;fill-opacity:1;fill-rule:evenodd;stroke:none;stroke-width:1;stroke-linecap:round;stroke-linejoin:round;stroke-miterlimit:4;stroke-dasharray:none;stroke-opacity:1" />
      <path
         id="path5217"
         d="m 5.10317,1501.5357 6.08565,-0.5295 4.10134,-5.8205 15.61185,7.5171 2.44107,-4.4597 14.59233,-10.965 22.63765,2.083 -17.55205,5.9233 -9.76791,13.7983 -0.42011,9.038 13.43775,10.5738 2.02094,7.9992 13.02161,5.6197 1.04935,-18.1987 -15.30609,-10.1191 11.37694,-8.4666 7.93782,2.2489 15.87476,-6.3501 7.61822,4.8834 7.06618,15.3569 -3.64668,18.1622 13.12321,-18.5627 -2.20135,-18.1191 -2.57285,-4.3903 -0.0701,0.047 -6.63524,-11.4927 5.26354,-11.3731 3.47736,-12.9794 5.3e-4,9e-4 -1.8e-4,3e-4 20.72111,3.677 5.70862,0.3686 4.5513,-16.9845 -12.52981,1.5821 -19.27496,-6.1332 -14.94421,13.6225 -4.89483,11.6417 -12.43586,-12.435 3.17494,-4.763 13.54431,-16.105 -9.5012,-9.5009 -7.21771,-10.2451 -13.27068,10e-5 1.29626,17.28 7.09061,0.6405 3.50075,5.0051 -7.09868,5.1671 -4.57144,4.7792 -3.98527,0.7732 -2.24654,0.076 -3.90838,-22.6423 -19.15141,-8.037 -6.74638,3.1307 -6.92157,25.8303 18.90876,18.9088 -0.66219,7.4086 -16.53634,12.5672 -21.56372,-7.9374 -1.05798,1.9845 -1.32325,3.8369 1.85273,6.3498 z"
         style="fill:#ecedef;fill-opacity:1;fill-rule:evenodd;stroke:none;stroke-width:1;stroke-linecap:round;stroke-linejoin:round;stroke-miterlimit:4;stroke-dasharray:none;stroke-opacity:1" />
      <path
         style="fill:#bbc0bf;fill-opacity:1;fill-rule:evenodd;stroke:none;stroke-width:1;stroke-linecap:round;stroke-linejoin:round;stroke-miterlimit:4;stroke-dasharray:none;stroke-opacity:1"
         d="m 222.59654,1663.6703 -3.50136,-5.0056 -7.0914,-0.6416 -1.29594,-17.2788 -5.08271,0.1158 -16.79216,-7.1548 -9.51486,-20.6463 13.90569,12.2389 16.83363,1.5601 8.03724,-4.1552 2.43825,-16.9243 5.91706,-5.7498 -1.64398,-14.0869 -16.28524,8.1906 -1.11034,18.315 -13.02077,-5.6194 -2.02132,-7.9988 -13.43672,-10.5729 0.42008,-9.0393 9.76632,-13.7979 17.55227,-5.923 -22.63733,-2.0837 -14.59097,10.966 -2.51568,4.4233 0.0762,0.037 -6.63528,11.4926 -12.48118,1.1282 -12.97915,3.4782 5e-4,-9e-4 h 3.6e-4 l -7.17618,-19.7835 -2.5351,-5.128 -16.98464,4.5506 7.63501,10.0601 4.32596,19.7592 19.26956,6.1308 12.52942,-1.5818 -4.55114,16.9873 -5.71231,-0.368 -20.71953,-3.6773 -3.47736,12.9787 -5.26373,11.3733 6.63542,11.4927 14.3168,-9.7626 -2.9906,-6.4609 2.58418,-5.5343 8.02417,3.5641 6.4246,1.5694 2.66231,3.0647 1.18867,1.9078 -17.6546,14.7059 2.61547,20.6041 6.08444,4.2772 25.83049,-6.9209 6.92117,-25.8299 6.7471,-3.1308 19.15166,8.0373 3.9079,22.6434 2.2476,-0.076 3.98451,-0.7725 4.57271,-4.7794 z"
         id="path5219" />
      <path
         style="fill:#54585f;fill-opacity:1;fill-rule:evenodd;stroke:none;stroke-width:1;stroke-linecap:round;stroke-linejoin:round;stroke-miterlimit:4;stroke-dasharray:none;stroke-opacity:1"
         d="m 261.57287,1547.1793 -2.58433,5.5351 2.98999,6.4621 -14.31592,9.7617 2.6417,4.3439 2.19987,18.1198 -13.12272,18.5633 3.64629,-18.1622 -7.06572,-15.3583 -7.6171,-4.8829 -15.87603,6.3505 -7.93802,-2.2494 -11.3776,8.4672 15.23576,10.0081 16.41657,-8.1959 1.64383,14.086 -5.91644,5.75 -2.43809,16.923 -8.03827,4.1558 -16.83256,-1.559 -13.90562,-12.2391 9.51415,20.6463 16.79226,7.1531 5.08858,-0.033 -0.006,-0.085 h 13.2705 l 7.21765,10.2449 9.50175,9.5012 h -9.9e-4 0.002 l -13.54491,16.1065 -3.17345,4.7595 12.43333,12.4338 4.8948,-11.6422 14.94895,-13.626 -4.32531,-19.7533 -7.63468,-10.0599 16.98708,-4.5522 2.53731,5.131 7.17527,19.7823 12.97854,-3.4779 12.48143,-1.1281 6.63524,-11.4928 -15.613,-7.5174 -4.10001,5.8203 -6.0849,0.5292 -0.92552,-8.7312 -1.85312,-6.3485 1.32292,-3.838 1.05781,-1.9833 21.56303,7.9364 16.53595,-12.5672 0.66196,-7.4078 -18.90892,-18.9094 -25.82994,6.921 -6.0849,-4.2778 -2.61535,-20.6044 17.65577,-14.7061 -1.18959,-1.9084 -2.66134,-3.0644 -6.42545,-1.5704 z"
         id="path5221" />
      <path
         style="fill:#ecedef;fill-opacity:1;fill-rule:evenodd;stroke:none;stroke-width:1;stroke-linecap:round;stroke-linejoin:round;stroke-miterlimit:4;stroke-dasharray:none;stroke-opacity:1"
         d="m 406.06724,1559.0039 6.08565,-0.5295 4.10134,-5.8205 15.61185,7.5171 2.44107,-4.4597 14.59233,-10.965 22.63765,2.083 -17.55205,5.9233 -9.76791,13.7983 -0.42011,9.038 13.43775,10.5738 2.02094,7.9992 13.02161,5.6197 1.04935,-18.1987 -15.30609,-10.1191 11.37694,-8.4666 7.93782,2.2489 15.87476,-6.3501 7.61822,4.8834 7.06618,15.3569 -3.64668,18.1622 13.12321,-18.5627 -2.20135,-18.1191 -2.57285,-4.3903 -0.0701,0.047 -6.63524,-11.4927 5.26354,-11.3731 3.47736,-12.9794 5.3e-4,9e-4 -1.8e-4,3e-4 20.72111,3.677 5.70862,0.3686 4.5513,-16.9845 -12.52981,1.5821 -19.27496,-6.1332 -14.94421,13.6225 -4.89483,11.6417 -12.43586,-12.435 3.17494,-4.763 13.54431,-16.105 -9.5012,-9.5009 -7.21771,-10.2451 -13.27068,10e-5 1.29626,17.28 7.09061,0.6405 3.50075,5.0051 -7.09868,5.1671 -4.57144,4.7792 -3.98527,0.7732 -2.24654,0.076 -3.90838,-22.6423 -19.15141,-8.037 -6.74638,3.1307 -6.92157,25.8303 18.90876,18.9088 -0.66219,7.4086 -16.53634,12.5672 -21.56372,-7.9374 -1.05798,1.9845 -1.32325,3.8369 1.85273,6.3498 z"
         id="path5223" />
      <path
         id="path5225"
         d="m 480.14891,1498.0821 -3.50136,-5.0056 -7.0914,-0.6416 -1.29594,-17.2788 -5.08271,0.1158 -16.79216,-7.1548 -9.51486,-20.6463 13.90569,12.2389 16.83363,1.5601 8.03724,-4.1552 2.43825,-16.9243 5.91706,-5.7498 -1.64398,-14.0869 -16.28524,8.1906 -1.11034,18.315 -13.02077,-5.6194 -2.02132,-7.9988 -13.43672,-10.5729 0.42008,-9.0393 9.76632,-13.7979 17.55227,-5.923 -22.63733,-2.0837 -14.59097,10.966 -2.51568,4.4233 0.0762,0.037 -6.63528,11.4926 -12.48118,1.1282 -12.97915,3.4782 5e-4,-9e-4 h 3.6e-4 l -7.17618,-19.7835 -2.5351,-5.128 -16.98464,4.5506 7.63501,10.0601 4.32596,19.7592 19.26956,6.1308 12.52942,-1.5818 -4.55114,16.9873 -5.71231,-0.368 -20.71953,-3.6773 -3.47736,12.9787 -5.26373,11.3733 6.63542,11.4927 14.3168,-9.7626 -2.9906,-6.4609 2.58418,-5.5343 8.02417,3.5641 6.4246,1.5694 2.66231,3.0647 1.18867,1.9078 -17.6546,14.7059 2.61547,20.6041 6.08444,4.2772 25.83049,-6.9209 6.92117,-25.8299 6.7471,-3.1308 19.15166,8.0373 3.9079,22.6434 2.2476,-0.076 3.98451,-0.7725 4.57271,-4.7794 z"
         style="fill:#bbc0bf;fill-opacity:1;fill-rule:evenodd;stroke:none;stroke-width:1;stroke-linecap:round;stroke-linejoin:round;stroke-miterlimit:4;stroke-dasharray:none;stroke-opacity:1" />
      <path
         style="fill:#ecedef;fill-opacity:1;fill-rule:evenodd;stroke:none;stroke-width:1;stroke-linecap:round;stroke-linejoin:round;stroke-miterlimit:4;stroke-dasharray:none;stroke-opacity:1"
         d="m 398.75276,1406.0825 6.08565,-0.5295 4.10134,-5.8205 15.61185,7.5171 2.44107,-4.4597 14.59233,-10.965 22.63765,2.083 -17.55205,5.9233 -9.76791,13.7983 -0.42011,9.038 13.43775,10.5738 2.02094,7.9992 13.02161,5.6197 1.04935,-18.1987 -15.30609,-10.1191 11.37694,-8.4666 7.93782,2.2489 15.87476,-6.3501 7.61822,4.8834 7.06618,15.3569 -3.64668,18.1622 13.12321,-18.5627 -2.20135,-18.1191 -2.57285,-4.3903 -0.0701,0.047 -6.63524,-11.4927 5.26354,-11.3731 3.47736,-12.9794 5.3e-4,9e-4 -1.8e-4,3e-4 20.72111,3.677 5.70862,0.3686 4.5513,-16.9845 -12.52981,1.5821 -19.27496,-6.1332 -14.94421,13.6225 -4.89483,11.6417 -12.43586,-12.435 3.17494,-4.763 13.54431,-16.105 -9.5012,-9.5009 -7.21771,-10.2451 -13.27068,1e-4 1.29626,17.28 7.09061,0.6405 3.50075,5.0051 -7.09868,5.1671 -4.57144,4.7792 -3.98527,0.7732 -2.24654,0.076 -3.90838,-22.6423 -19.15141,-8.037 -6.74638,3.1307 -6.92157,25.8303 18.90876,18.9088 -0.66219,7.4086 -16.53634,12.5672 -21.56372,-7.9374 -1.05798,1.9845 -1.32325,3.8369 1.85273,6.3498 z"
         id="path5227" />
      <path
         style="fill:#54585f;fill-opacity:1;fill-rule:evenodd;stroke:none;stroke-width:1;stroke-linecap:round;stroke-linejoin:round;stroke-miterlimit:4;stroke-dasharray:none;stroke-opacity:1"
         d="m 519.1296,1381.5935 -2.58433,5.5351 2.98999,6.4621 -14.31592,9.7617 2.6417,4.3439 2.19987,18.1198 -13.12272,18.5633 3.64629,-18.1622 -7.06572,-15.3583 -7.61711,-4.8829 -15.87603,6.3505 -7.93802,-2.2494 -11.37759,8.4672 15.23576,10.0081 16.41657,-8.1959 1.64382,14.086 -5.91643,5.75 -2.43809,16.923 -8.03827,4.1558 -16.83257,-1.559 -13.90561,-12.2391 9.51415,20.6463 16.79226,7.1531 5.08857,-0.033 -0.006,-0.085 h 13.27051 l 7.21765,10.2449 9.50175,9.5012 h -10e-4 0.002 l -13.54492,16.1065 -3.17345,4.7595 12.43335,12.4338 4.8948,-11.6422 14.94895,-13.626 -4.32531,-19.7533 -7.63468,-10.0599 16.98708,-4.5522 2.53731,5.131 7.17527,19.7823 12.97854,-3.4779 12.48142,-1.1281 6.63525,-11.4928 -15.61301,-7.5174 -4.10001,5.8203 -6.0849,0.5292 -0.92552,-8.7312 -1.85312,-6.3485 1.32292,-3.838 1.05781,-1.9833 21.56303,7.9364 16.53595,-12.5672 0.66196,-7.4078 -18.90892,-18.9094 -25.82994,6.921 -6.0849,-4.2778 -2.61535,-20.6044 17.65577,-14.7061 -1.18959,-1.9084 -2.66134,-3.0644 -6.42545,-1.5704 z"
         id="path5229" />
      <path
         id="path5231"
         d="m 413.37828,1711.9267 6.08565,-0.5295 4.10134,-5.8205 15.61185,7.5171 2.44107,-4.4597 14.59233,-10.965 22.63765,2.083 -17.55205,5.9233 -9.76791,13.7983 -0.42011,9.038 13.43775,10.5738 2.02094,7.9992 13.02161,5.6197 1.04935,-18.1987 -15.30609,-10.1191 11.37694,-8.4666 7.93782,2.2489 15.87476,-6.3501 7.61822,4.8834 7.06618,15.3569 -3.64668,18.1622 13.12321,-18.5627 -2.20135,-18.1191 -2.57285,-4.3903 -0.0701,0.047 -6.63524,-11.4927 5.26354,-11.3731 3.47736,-12.9794 5.3e-4,9e-4 -1.8e-4,3e-4 20.7211,3.677 5.70862,0.3686 4.5513,-16.9845 -12.52981,1.5821 -19.27495,-6.1332 -14.94421,13.6225 -4.89483,11.6417 -12.43586,-12.435 3.17494,-4.763 13.54431,-16.105 -9.5012,-9.5009 -7.21771,-10.2451 -13.27068,1e-4 1.29626,17.28 7.09061,0.6405 3.50075,5.0051 -7.09868,5.1671 -4.57144,4.7792 -3.98527,0.7732 -2.24654,0.076 -3.90838,-22.6423 -19.15141,-8.037 -6.74638,3.1307 -6.92157,25.8303 18.90876,18.9088 -0.66219,7.4086 -16.53634,12.5672 -21.56372,-7.9374 -1.05798,1.9845 -1.32325,3.8369 1.85273,6.3498 z"
         style="fill:#ecedef;fill-opacity:1;fill-rule:evenodd;stroke:none;stroke-width:1;stroke-linecap:round;stroke-linejoin:round;stroke-miterlimit:4;stroke-dasharray:none;stroke-opacity:1" />
      <path
         id="path5233"
         d="m 616.24071,1568.2092 -3.50136,-5.0056 -7.0914,-0.6416 -1.29594,-17.2788 -5.08271,0.1158 -16.79216,-7.1548 -9.51486,-20.6463 13.90569,12.2389 16.83363,1.5601 8.03724,-4.1552 2.43825,-16.9243 5.91706,-5.7498 -1.64398,-14.0869 -16.28524,8.1906 -1.11034,18.315 -13.02077,-5.6194 -2.02132,-7.9988 -13.43672,-10.5729 0.42008,-9.0393 9.76632,-13.7979 17.55227,-5.923 -22.63733,-2.0837 -14.59097,10.966 -2.51568,4.4233 0.0762,0.037 -6.63528,11.4926 -12.48118,1.1282 -12.97915,3.4782 5e-4,-9e-4 h 3.6e-4 l -7.17618,-19.7835 -2.5351,-5.128 -16.98464,4.5506 7.63501,10.0601 4.32596,19.7592 19.26956,6.1308 12.52942,-1.5818 -4.55114,16.9873 -5.71231,-0.368 -20.71953,-3.6773 -3.47736,12.9787 -5.26373,11.3733 6.63542,11.4927 14.3168,-9.7626 -2.9906,-6.4609 2.58418,-5.5343 8.02417,3.5641 6.4246,1.5694 2.66231,3.0647 1.18867,1.9078 -17.6546,14.7059 2.61547,20.6041 6.08444,4.2772 25.83049,-6.9209 6.92117,-25.8299 6.7471,-3.1308 19.15166,8.0373 3.9079,22.6434 2.2476,-0.076 3.98451,-0.7725 4.57271,-4.7794 z"
         style="fill:#bbc0bf;fill-opacity:1;fill-rule:evenodd;stroke:none;stroke-width:1;stroke-linecap:round;stroke-linejoin:round;stroke-miterlimit:4;stroke-dasharray:none;stroke-opacity:1" />
      <path
         style="fill:#bbc0bf;fill-opacity:1;fill-rule:evenodd;stroke:none;stroke-width:1;stroke-linecap:round;stroke-linejoin:round;stroke-miterlimit:4;stroke-dasharray:none;stroke-opacity:1"
         d="m 623.5496,1721.1394 -3.50136,-5.0056 -7.0914,-0.6416 -1.29594,-17.2788 -5.08271,0.1158 -16.79217,-7.1548 -9.51486,-20.6463 13.90569,12.2389 16.83365,1.5601 8.03724,-4.1552 2.43825,-16.9243 5.91706,-5.7498 -1.64398,-14.0869 -16.28524,8.1906 -1.11034,18.315 -13.02078,-5.6194 -2.02132,-7.9989 -13.43672,-10.5728 0.42008,-9.0393 9.76632,-13.7979 17.55228,-5.923 -22.63734,-2.0837 -14.59097,10.966 -2.51568,4.4233 0.0762,0.037 -6.63528,11.4926 -12.48118,1.1282 -12.97915,3.4782 5e-4,-9e-4 h 3.6e-4 l -7.17617,-19.7835 -2.53511,-5.1281 -16.98464,4.5507 7.63501,10.0601 4.32596,19.7592 19.26956,6.1308 12.52942,-1.5818 -4.55114,16.9873 -5.71231,-0.3681 -20.71953,-3.6772 -3.47736,12.9787 -5.26373,11.3733 6.63542,11.4927 14.3168,-9.7626 -2.9906,-6.4609 2.58418,-5.5344 8.02417,3.5642 6.4246,1.5694 2.66231,3.0647 1.18867,1.9077 -17.6546,14.7059 2.61547,20.6041 6.08444,4.2772 25.83049,-6.9209 6.92117,-25.8299 6.7471,-3.1308 19.15166,8.0373 3.90791,22.6434 2.2476,-0.076 3.98451,-0.7725 4.57271,-4.7794 z"
         id="path5235" />
      <path
         style="fill:#ecedef;fill-opacity:1;fill-rule:evenodd;stroke:none;stroke-width:1;stroke-linecap:round;stroke-linejoin:round;stroke-miterlimit:4;stroke-dasharray:none;stroke-opacity:1"
         d="m 542.15853,1629.1309 6.08564,-0.5295 4.10134,-5.8205 15.61185,7.5171 2.44108,-4.4597 14.59233,-10.965 22.63765,2.083 -17.55205,5.9233 -9.76791,13.7983 -0.42011,9.038 13.43775,10.5738 2.02094,7.9992 13.02161,5.6197 1.04935,-18.1987 -15.30609,-10.1191 11.37694,-8.4666 7.93782,2.2489 15.87476,-6.3501 7.61822,4.8834 7.06617,15.3569 -3.64668,18.1622 13.12321,-18.5627 -2.20135,-18.1191 -2.57285,-4.3903 -0.0701,0.047 -6.63524,-11.4927 5.26354,-11.3731 3.47736,-12.9794 5.3e-4,9e-4 -1.8e-4,3e-4 20.7211,3.677 5.70862,0.3686 4.5513,-16.9845 -12.52981,1.5821 -19.27495,-6.1332 -14.94421,13.6225 -4.89483,11.6417 -12.43586,-12.435 3.17494,-4.763 13.54431,-16.105 -9.5012,-9.5009 -7.21771,-10.2451 -13.27068,10e-5 1.29626,17.28 7.09061,0.6405 3.50075,5.0051 -7.09868,5.1671 -4.57144,4.7792 -3.98527,0.7732 -2.24654,0.076 -3.90838,-22.6423 -19.15141,-8.037 -6.74638,3.1307 -6.92157,25.8303 18.90877,18.9088 -0.6622,7.4086 -16.53634,12.5672 -21.56371,-7.9374 -1.05798,1.9845 -1.32325,3.8369 1.85273,6.3498 z"
         id="path5237" />
      <path
         id="path5210"
         d="m 534.85076,1476.2107 6.08565,-0.5295 4.10134,-5.8205 15.61185,7.5171 2.44107,-4.4597 14.59233,-10.965 22.63765,2.083 -17.55205,5.9233 -9.76791,13.7983 -0.42011,9.038 13.43775,10.5738 2.02094,7.9992 13.02161,5.6197 1.04935,-18.1987 -15.30609,-10.1191 11.37694,-8.4666 7.93782,2.2489 15.87476,-6.3501 7.61822,4.8834 7.06618,15.3569 -3.64668,18.1622 13.12321,-18.5627 -2.20135,-18.1191 -2.57285,-4.3903 -0.0701,0.047 -6.63524,-11.4927 5.26354,-11.3731 3.47736,-12.9794 5.3e-4,9e-4 -1.8e-4,3e-4 20.72111,3.677 5.70862,0.3686 4.5513,-16.9845 -12.52981,1.5821 -19.27496,-6.1332 -14.94421,13.6225 -4.89483,11.6417 -12.43586,-12.435 3.17494,-4.763 13.54431,-16.105 -9.5012,-9.5009 -7.21771,-10.2451 -13.27068,10e-5 1.29626,17.28 7.09061,0.6405 3.50075,5.0051 -7.09868,5.1671 -4.57144,4.7792 -3.98527,0.7732 -2.24654,0.076 -3.90838,-22.6423 -19.15141,-8.037 -6.74638,3.1307 -6.92157,25.8303 18.90876,18.9088 -0.66219,7.4086 -16.53634,12.5672 -21.56372,-7.9374 -1.05798,1.9845 -1.32325,3.8369 1.85273,6.3498 z"
         style="fill:#ecedef;fill-opacity:1;fill-rule:evenodd;stroke:none;stroke-width:1;stroke-linecap:round;stroke-linejoin:round;stroke-miterlimit:4;stroke-dasharray:none;stroke-opacity:1" />
      <path
         id="path5212"
         d="m 246.94751,1241.341 -2.58433,5.5351 2.98999,6.4621 -14.31592,9.7617 2.6417,4.3439 2.19987,18.1198 -13.12272,18.5633 3.64629,-18.1622 -7.06571,-15.3583 -7.61711,-4.8829 -15.87603,6.3505 -7.93802,-2.2494 -11.3776,8.4672 15.23576,10.0081 16.41657,-8.1958 1.64383,14.086 -5.91644,5.75 -2.43809,16.923 -8.03827,4.1558 -16.83256,-1.559 -13.90561,-12.2391 9.51414,20.6463 16.79226,7.1531 5.08858,-0.033 -0.006,-0.085 h 13.27051 l 7.21764,10.2449 9.50175,9.5012 h -0.001 0.002 l -13.54491,16.1065 -3.17345,4.7595 12.43334,12.4338 4.8948,-11.6422 14.94895,-13.626 -4.32531,-19.7533 -7.63468,-10.0599 16.98708,-4.5523 2.53731,5.1311 7.17527,19.7823 12.97854,-3.4779 12.48142,-1.1281 6.63525,-11.4928 -15.61301,-7.5174 -4.10001,5.8203 -6.0849,0.5292 -0.92552,-8.7312 -1.85312,-6.3485 1.32292,-3.838 1.05781,-1.9833 21.56303,7.9364 16.53595,-12.5672 0.66196,-7.4078 -18.90892,-18.9094 -25.82994,6.921 -6.0849,-4.2778 -2.61535,-20.6044 17.65577,-14.7061 -1.18959,-1.9084 -2.66134,-3.0644 -6.42545,-1.5704 z"
         style="fill:#54585f;fill-opacity:1;fill-rule:evenodd;stroke:none;stroke-width:1;stroke-linecap:round;stroke-linejoin:round;stroke-miterlimit:4;stroke-dasharray:none;stroke-opacity:1" />
      <path
         style="fill:#bbc0bf;fill-opacity:1;fill-rule:evenodd;stroke:none;stroke-width:1;stroke-linecap:round;stroke-linejoin:round;stroke-miterlimit:4;stroke-dasharray:none;stroke-opacity:1"
         d="m 472.83479,1345.1607 -3.50136,-5.0056 -7.0914,-0.6416 -1.29594,-17.2788 -5.08271,0.1158 -16.79217,-7.1548 -9.51486,-20.6463 13.90569,12.2389 16.83365,1.5601 8.03724,-4.1552 2.43825,-16.9243 5.91706,-5.7498 -1.64398,-14.0869 -16.28524,8.1906 -1.11034,18.315 -13.02078,-5.6194 -2.02132,-7.9989 -13.43672,-10.5728 0.42008,-9.0393 9.76632,-13.7979 17.55228,-5.923 -22.63734,-2.0837 -14.59097,10.966 -2.51568,4.4233 0.0762,0.037 -6.63528,11.4926 -12.48118,1.1282 -12.97915,3.4782 5e-4,-9e-4 h 3.6e-4 l -7.17617,-19.7835 -2.53511,-5.128 -16.98464,4.5507 7.63501,10.06 4.32596,19.7592 19.26956,6.1308 12.52942,-1.5818 -4.55114,16.9873 -5.71231,-0.368 -20.71953,-3.6773 -3.47736,12.9787 -5.26373,11.3733 6.63542,11.4927 14.3168,-9.7626 -2.9906,-6.4609 2.58418,-5.5344 8.02417,3.5642 6.4246,1.5694 2.66231,3.0647 1.18867,1.9077 -17.6546,14.7059 2.61547,20.6041 6.08444,4.2772 25.83049,-6.9209 6.92117,-25.8299 6.7471,-3.1308 19.15166,8.0373 3.90791,22.6434 2.2476,-0.076 3.98451,-0.7725 4.57271,-4.7794 z"
         id="path5214" />
      <path
         id="path5216"
         d="m 262.66627,1335.9523 6.08565,-0.5295 4.10134,-5.8205 15.61185,7.5171 2.44107,-4.4597 14.59233,-10.965 22.63765,2.083 -17.55205,5.9233 -9.76791,13.7983 -0.42011,9.038 13.43775,10.5738 2.02094,7.9992 13.02161,5.6197 1.04935,-18.1987 -15.30609,-10.1191 11.37694,-8.4666 7.93782,2.2489 15.87476,-6.3501 7.61822,4.8834 7.06618,15.3569 -3.64668,18.1622 13.12322,-18.5627 -2.20135,-18.1191 -2.57285,-4.3903 -0.0701,0.047 -6.63525,-11.4927 5.26355,-11.3731 3.47736,-12.9794 5.3e-4,9e-4 -1.8e-4,3e-4 20.7211,3.677 5.70862,0.3686 4.5513,-16.9845 -12.52981,1.5821 -19.27495,-6.1332 -14.94422,13.6225 -4.89483,11.6417 -12.43586,-12.435 3.17494,-4.763 13.54431,-16.105 -9.5012,-9.5009 -7.21771,-10.2451 -13.27068,10e-5 1.29626,17.28 7.09061,0.6405 3.50075,5.0051 -7.09868,5.1671 -4.57144,4.7792 -3.98527,0.7732 -2.24654,0.076 -3.90838,-22.6423 -19.15141,-8.037 -6.74638,3.1307 -6.92157,25.8303 18.90876,18.9088 -0.66219,7.4086 -16.53634,12.5672 -21.56372,-7.9374 -1.05798,1.9845 -1.32325,3.8369 1.85273,6.3498 z"
         style="fill:#ecedef;fill-opacity:1;fill-rule:evenodd;stroke:none;stroke-width:1;stroke-linecap:round;stroke-linejoin:round;stroke-miterlimit:4;stroke-dasharray:none;stroke-opacity:1" />
      <path
         style="fill:#54585f;fill-opacity:1;fill-rule:evenodd;stroke:none;stroke-width:1;stroke-linecap:round;stroke-linejoin:round;stroke-miterlimit:4;stroke-dasharray:none;stroke-opacity:1"
         d="m 511.81168,1228.67 -2.58433,5.5352 2.98998,6.462 -14.31592,9.7617 2.6417,4.344 2.19988,18.1198 -13.12273,18.5633 3.64629,-18.1622 -7.06571,-15.3584 -7.61711,-4.8829 -15.87603,6.3505 -7.93802,-2.2494 -11.3776,8.4673 15.23576,10.0081 16.41657,-8.1959 1.64383,14.086 -5.91643,5.75 -2.4381,16.923 -8.03827,4.1558 -16.83257,-1.559 -13.90561,-12.239 9.51415,20.6462 16.79225,7.1531 5.08858,-0.033 -0.006,-0.085 h 13.27051 l 7.21765,10.2449 9.50174,9.5011 h -0.001 0.002 l -13.54492,16.1066 -3.17345,4.7594 12.43334,12.4339 4.8948,-11.6423 14.94896,-13.6259 -4.32531,-19.7534 -7.63469,-10.0598 16.98709,-4.5523 2.53731,5.131 7.17527,19.7824 12.97854,-3.478 12.48142,-1.1281 6.63525,-11.4928 -15.61301,-7.5172 -4.10001,5.8203 -6.0849,0.5291 -0.92552,-8.7311 -1.85312,-6.3485 1.32293,-3.8381 1.05781,-1.9832 21.56303,7.9364 16.53595,-12.5672 0.66196,-7.4078 -18.90892,-18.9094 -25.82994,6.9211 -6.0849,-4.2779 -2.61535,-20.6043 17.65577,-14.7062 -1.18959,-1.9085 -2.66134,-3.0643 -6.42545,-1.5704 z"
         id="path5218" />
      <path
         style="fill:#ecedef;fill-opacity:1;fill-rule:evenodd;stroke:none;stroke-width:1;stroke-linecap:round;stroke-linejoin:round;stroke-miterlimit:4;stroke-dasharray:none;stroke-opacity:1"
         d="m 527.52787,1323.2941 6.08565,-0.5295 4.10134,-5.8205 15.61185,7.5171 2.44107,-4.4597 14.59233,-10.965 22.63765,2.083 -17.55205,5.9233 -9.76791,13.7983 -0.42011,9.038 13.43775,10.5737 2.02094,7.9992 13.02161,5.6197 1.04935,-18.1987 -15.30609,-10.119 11.37694,-8.4666 7.93782,2.2489 15.87476,-6.3501 7.61822,4.8833 7.06618,15.3569 -3.64668,18.1622 13.12321,-18.5627 -2.20135,-18.119 -2.57285,-4.3903 -0.0701,0.047 -6.63524,-11.4927 5.26354,-11.3731 3.47736,-12.9794 5.3e-4,9e-4 -1.8e-4,3e-4 20.7211,3.6769 5.70862,0.3686 4.5513,-16.9845 -12.52981,1.5822 -19.27495,-6.1332 -14.94421,13.6224 -4.89483,11.6417 -12.43586,-12.435 3.17494,-4.7629 13.54431,-16.105 -9.5012,-9.5009 -7.21771,-10.2452 -13.27068,10e-5 1.29626,17.28 7.09061,0.6405 3.50075,5.0051 -7.09868,5.1671 -4.57144,4.7792 -3.98527,0.7732 -2.24654,0.076 -3.90838,-22.6423 -19.15141,-8.037 -6.74638,3.1307 -6.92157,25.8303 18.90876,18.9088 -0.66219,7.4086 -16.53634,12.5672 -21.56372,-7.9374 -1.05798,1.9845 -1.32325,3.8369 1.85273,6.3498 z"
         id="path5220" />
      <path
         id="path5222"
         d="m 608.92401,1415.2937 -3.50136,-5.0056 -7.0914,-0.6415 -1.29594,-17.2789 -5.08271,0.1159 -16.79217,-7.1549 -9.51486,-20.6463 13.90569,12.2389 16.83365,1.5601 8.03724,-4.1552 2.43825,-16.9242 5.91706,-5.7499 -1.64398,-14.0869 -16.28524,8.1906 -1.11034,18.315 -13.02078,-5.6194 -2.02132,-7.9989 -13.43672,-10.5728 0.42008,-9.0392 9.76632,-13.798 17.55228,-5.923 -22.63734,-2.0836 -14.59097,10.9659 -2.51568,4.4233 0.0762,0.037 -6.63528,11.4926 -12.48118,1.1283 -12.97915,3.4782 5e-4,-9e-4 h 3.6e-4 l -7.17617,-19.7835 -2.53511,-5.1281 -16.98464,4.5507 7.63501,10.0601 4.32596,19.7592 19.26956,6.1307 12.52942,-1.5817 -4.55114,16.9873 -5.71231,-0.3681 -20.71953,-3.6772 -3.47736,12.9786 -5.26373,11.3733 6.63542,11.4927 14.3168,-9.7626 -2.9906,-6.4609 2.58418,-5.5344 8.02417,3.5642 6.4246,1.5694 2.66231,3.0647 1.18867,1.9077 -17.6546,14.7059 2.61547,20.6041 6.08444,4.2772 25.83049,-6.9209 6.92117,-25.8299 6.7471,-3.1308 19.15166,8.0373 3.90791,22.6434 2.2476,-0.076 3.98451,-0.7725 4.57271,-4.7794 z"
         style="fill:#bbc0bf;fill-opacity:1;fill-rule:evenodd;stroke:none;stroke-width:1;stroke-linecap:round;stroke-linejoin:round;stroke-miterlimit:4;stroke-dasharray:none;stroke-opacity:1" />
      <path
         style="fill:#54585f;fill-opacity:1;fill-rule:evenodd;stroke:none;stroke-width:1;stroke-linecap:round;stroke-linejoin:round;stroke-miterlimit:4;stroke-dasharray:none;stroke-opacity:1"
         d="m 662.52629,1604.6483 -2.58434,5.5352 2.98999,6.462 -14.31592,9.7617 2.6417,4.344 2.19987,18.1198 -13.12272,18.5632 3.64629,-18.1621 -7.06572,-15.3584 -7.6171,-4.8829 -15.87603,6.3505 -7.93802,-2.2494 -11.3776,8.4673 15.23577,10.0081 16.41656,-8.196 1.64383,14.0861 -5.91644,5.75 -2.43809,16.9229 -8.03827,4.1558 -16.83256,-1.5589 -13.90562,-12.2392 9.51415,20.6464 16.79226,7.1531 5.08857,-0.033 -0.006,-0.085 h 13.2705 l 7.21764,10.2449 9.50176,9.5012 h -10e-4 0.002 l -13.54491,16.1065 -3.17345,4.7595 12.43334,12.4337 4.8948,-11.6421 14.94896,-13.6261 -4.32531,-19.7532 -7.63468,-10.06 16.98707,-4.5522 2.53731,5.1311 7.17528,19.7822 12.97854,-3.4778 12.48142,-1.1281 6.63525,-11.4928 -15.61301,-7.5174 -4.10001,5.8203 -6.0849,0.5292 -0.92552,-8.7312 -1.85312,-6.3485 1.32292,-3.838 1.05781,-1.9833 21.56303,7.9364 16.53595,-12.5672 0.66196,-7.4078 -18.90892,-18.9094 -25.82994,6.921 -6.0849,-4.2778 -2.61535,-20.6044 17.65577,-14.7061 -1.18959,-1.9084 -2.66134,-3.0644 -6.42545,-1.5704 z"
         id="path5230" />
      <path
         id="path5232"
         d="m 655.21885,1451.7273 -2.58433,5.5351 2.98999,6.4621 -14.31592,9.7617 2.6417,4.3439 2.19987,18.1198 -13.12272,18.5633 3.64629,-18.1622 -7.06572,-15.3583 -7.61711,-4.8829 -15.87603,6.3505 -7.93802,-2.2494 -11.37759,8.4672 15.23576,10.0081 16.41657,-8.1959 1.64382,14.086 -5.91643,5.75 -2.43809,16.923 -8.03827,4.1558 -16.83257,-1.559 -13.90561,-12.2391 9.51415,20.6463 16.79226,7.1531 5.08857,-0.033 -0.006,-0.085 h 13.27051 l 7.21765,10.2449 9.50175,9.5012 h -0.001 0.002 l -13.54492,16.1065 -3.17345,4.7595 12.43335,12.4338 4.8948,-11.6422 14.94895,-13.626 -4.32531,-19.7533 -7.63468,-10.0599 16.98708,-4.5522 2.53731,5.131 7.17527,19.7823 12.97854,-3.4779 12.48142,-1.1281 6.63525,-11.4928 -15.61301,-7.5174 -4.10001,5.8203 -6.0849,0.5292 -0.92552,-8.7312 -1.85312,-6.3485 1.32292,-3.838 1.05781,-1.9833 21.56303,7.9364 16.53595,-12.5672 0.66196,-7.4078 -18.90892,-18.9094 -25.82994,6.921 -6.0849,-4.2778 -2.61535,-20.6044 17.65577,-14.7061 -1.18959,-1.9084 -2.66134,-3.0644 -6.42545,-1.5704 z"
         style="fill:#54585f;fill-opacity:1;fill-rule:evenodd;stroke:none;stroke-width:1;stroke-linecap:round;stroke-linejoin:round;stroke-miterlimit:4;stroke-dasharray:none;stroke-opacity:1" />
      <path
         id="path5234"
         d="m 647.90093,1298.8038 -2.58433,5.5352 2.98998,6.462 -14.31592,9.7617 2.6417,4.344 2.19988,18.1198 -13.12273,18.5633 3.64629,-18.1622 -7.06571,-15.3584 -7.61711,-4.8829 -15.87603,6.3505 -7.93802,-2.2494 -11.3776,8.4673 15.23576,10.0081 16.41657,-8.1959 1.64383,14.086 -5.91643,5.75 -2.4381,16.923 -8.03827,4.1558 -16.83257,-1.559 -13.90561,-12.239 9.51415,20.6462 16.79225,7.1531 5.08858,-0.033 -0.006,-0.085 H 610.306 l 7.21765,10.2449 9.50174,9.5011 h -10e-4 0.002 l -13.54492,16.1066 -3.17345,4.7594 12.43334,12.4339 4.8948,-11.6423 14.94896,-13.6259 -4.32531,-19.7534 -7.63469,-10.0598 16.98709,-4.5523 2.53731,5.131 7.17527,19.7824 12.97854,-3.478 12.48142,-1.1281 6.63525,-11.4928 -15.61301,-7.5172 -4.10001,5.8203 -6.0849,0.5291 -0.92552,-8.7311 -1.85312,-6.3485 1.32293,-3.8381 1.05781,-1.9832 21.56303,7.9364 16.53595,-12.5672 0.66196,-7.4078 -18.90892,-18.9094 -25.82994,6.9211 -6.0849,-4.2779 -2.61535,-20.6043 17.65577,-14.7062 -1.18959,-1.9085 -2.66134,-3.0643 -6.42545,-1.5704 z"
         style="fill:#54585f;fill-opacity:1;fill-rule:evenodd;stroke:none;stroke-width:1;stroke-linecap:round;stroke-linejoin:round;stroke-miterlimit:4;stroke-dasharray:none;stroke-opacity:1" />
      <path
         style="fill:#bbc0bf;fill-opacity:1;fill-rule:evenodd;stroke:none;stroke-width:1;stroke-linecap:round;stroke-linejoin:round;stroke-miterlimit:4;stroke-dasharray:none;stroke-opacity:1"
         d="m 752.32984,1638.3436 -3.50136,-5.0056 -7.0914,-0.6416 -1.29594,-17.2788 -5.08271,0.1158 -16.79216,-7.1548 -9.51486,-20.6463 13.90569,12.2389 16.83363,1.5601 8.03724,-4.1552 2.43825,-16.9243 5.91706,-5.7498 -1.64398,-14.0869 -16.28524,8.1906 -1.11034,18.315 -13.02077,-5.6194 -2.02132,-7.9988 -13.43672,-10.5729 0.42008,-9.0393 9.76632,-13.7979 17.55227,-5.923 -22.63733,-2.0837 -14.59097,10.966 -2.51568,4.4233 0.0762,0.037 -6.63528,11.4926 -12.48118,1.1282 -12.97915,3.4782 5e-4,-9e-4 h 3.6e-4 l -7.17618,-19.7835 -2.5351,-5.128 -16.98464,4.5506 7.63501,10.0601 4.32596,19.7592 19.26956,6.1308 12.52942,-1.5818 -4.55114,16.9873 -5.71231,-0.368 -20.71953,-3.6773 -3.47736,12.9787 -5.26373,11.3733 6.63542,11.4927 14.3168,-9.7626 -2.9906,-6.4609 2.58418,-5.5343 8.02417,3.5641 6.4246,1.5694 2.66231,3.0647 1.18867,1.9078 -17.6546,14.7059 2.61547,20.6041 6.08444,4.2772 25.83049,-6.9209 6.92117,-25.8299 6.7471,-3.1308 19.15166,8.0373 3.9079,22.6434 2.2476,-0.076 3.98451,-0.7725 4.57271,-4.7794 z"
         id="path5236" />
      <path
         id="path5240"
         d="m 737.70463,1332.4984 -3.50136,-5.0056 -7.0914,-0.6416 -1.29594,-17.2788 -5.08271,0.1158 -16.79217,-7.1548 -9.51486,-20.6463 13.90569,12.2389 16.83365,1.5601 8.03724,-4.1552 2.43825,-16.9243 5.91706,-5.7498 -1.64398,-14.0869 -16.28524,8.1906 -1.11034,18.315 -13.02078,-5.6194 -2.02132,-7.9989 -13.43672,-10.5728 0.42008,-9.0393 9.76632,-13.7979 17.55228,-5.923 -22.63734,-2.0837 -14.59097,10.966 -2.51568,4.4233 0.0762,0.037 -6.63528,11.4926 -12.48118,1.1282 -12.97915,3.4782 5e-4,-9e-4 h 3.6e-4 l -7.17617,-19.7835 -2.53511,-5.1281 -16.98464,4.5507 7.63501,10.0601 4.32596,19.7592 19.26956,6.1308 12.52942,-1.5818 -4.55114,16.9873 -5.71231,-0.3681 -20.71953,-3.6772 -3.47736,12.9787 -5.26373,11.3733 6.63542,11.4927 14.3168,-9.7626 -2.9906,-6.4609 2.58418,-5.5344 8.02417,3.5642 6.4246,1.5694 2.66231,3.0647 1.18867,1.9077 -17.6546,14.7059 2.61547,20.6041 6.08444,4.2772 25.83049,-6.9209 6.92117,-25.8299 6.7471,-3.1308 19.15166,8.0373 3.90791,22.6434 2.2476,-0.076 3.98451,-0.7725 4.57271,-4.7794 z"
         style="fill:#bbc0bf;fill-opacity:1;fill-rule:evenodd;stroke:none;stroke-width:1;stroke-linecap:round;stroke-linejoin:round;stroke-miterlimit:4;stroke-dasharray:none;stroke-opacity:1" />
      <path
         style="fill:#bbc0bf;fill-opacity:1;fill-rule:evenodd;stroke:none;stroke-width:1;stroke-linecap:round;stroke-linejoin:round;stroke-miterlimit:4;stroke-dasharray:none;stroke-opacity:1"
         d="m 745.01314,1485.4281 -3.50136,-5.0056 -7.0914,-0.6415 -1.29594,-17.2789 -5.08271,0.1159 -16.79217,-7.1549 -9.51486,-20.6463 13.90569,12.2389 16.83365,1.5601 8.03724,-4.1552 2.43825,-16.9242 5.91706,-5.7499 -1.64398,-14.0869 -16.28524,8.1906 -1.11034,18.315 -13.02078,-5.6194 -2.02132,-7.9989 -13.43672,-10.5728 0.42008,-9.0392 9.76632,-13.798 17.55228,-5.923 -22.63734,-2.0836 -14.59097,10.9659 -2.51568,4.4233 0.0762,0.037 -6.63528,11.4926 -12.48118,1.1283 -12.97915,3.4782 5e-4,-9e-4 h 3.6e-4 l -7.17617,-19.7835 -2.53511,-5.1281 -16.98464,4.5507 7.63501,10.0601 4.32596,19.7592 19.26956,6.1307 12.52942,-1.5817 -4.55114,16.9873 -5.71231,-0.3681 -20.71953,-3.6772 -3.47736,12.9786 -5.26373,11.3733 6.63542,11.4927 14.3168,-9.7626 -2.9906,-6.4609 2.58418,-5.5344 8.02417,3.5642 6.4246,1.5694 2.66231,3.0647 1.18867,1.9077 -17.6546,14.7059 2.61547,20.6041 6.08444,4.2772 25.83049,-6.9209 6.92117,-25.8299 6.7471,-3.1308 19.15166,8.0373 3.90791,22.6434 2.2476,-0.076 3.98451,-0.7725 4.57271,-4.7794 z"
         id="path5242" />
      <path
         id="path5244"
         d="m 663.61716,1393.4282 6.08564,-0.5295 4.10135,-5.8205 15.61185,7.5171 2.44107,-4.4597 14.59233,-10.965 22.63764,2.083 -17.55205,5.9233 -9.76791,13.7983 -0.42011,9.038 13.43775,10.5738 2.02094,7.9992 13.02161,5.6197 1.04935,-18.1987 -15.30608,-10.1191 11.37693,-8.4666 7.93783,2.2489 15.87475,-6.3501 7.61823,4.8834 7.06617,15.3569 -3.64668,18.1622 13.12321,-18.5627 -2.20135,-18.1191 -2.57285,-4.3903 -0.0701,0.047 -6.63524,-11.4927 5.26354,-11.3731 3.47736,-12.9794 5.3e-4,9e-4 -1.8e-4,3e-4 20.72111,3.677 5.70862,0.3686 4.5513,-16.9845 -12.52981,1.5821 -19.27496,-6.1332 -14.94421,13.6225 -4.89483,11.6417 -12.43586,-12.435 3.17494,-4.763 13.54431,-16.105 -9.5012,-9.5009 -7.21771,-10.2451 -13.27068,10e-5 1.29626,17.28 7.09061,0.6405 3.50075,5.0051 -7.09868,5.1671 -4.57144,4.7792 -3.98527,0.7732 -2.24654,0.076 -3.90838,-22.6423 -19.15141,-8.037 -6.74638,3.1307 -6.92157,25.8303 18.90876,18.9088 -0.66219,7.4086 -16.53634,12.5672 -21.56372,-7.9374 -1.05798,1.9845 -1.32325,3.8369 1.85273,6.3498 z"
         style="fill:#ecedef;fill-opacity:1;fill-rule:evenodd;stroke:none;stroke-width:1;stroke-linecap:round;stroke-linejoin:round;stroke-miterlimit:4;stroke-dasharray:none;stroke-opacity:1" />
      <path
         style="fill:#ecedef;fill-opacity:1;fill-rule:evenodd;stroke:none;stroke-width:1;stroke-linecap:round;stroke-linejoin:round;stroke-miterlimit:4;stroke-dasharray:none;stroke-opacity:1"
         d="m 670.93231,1546.3512 6.08565,-0.5295 4.10134,-5.8205 15.61185,7.5171 2.44107,-4.4597 14.59233,-10.965 22.63765,2.083 -17.55205,5.9233 -9.76791,13.7983 -0.42011,9.038 13.43775,10.5738 2.02094,7.9992 13.02161,5.6197 1.04935,-18.1987 -15.30609,-10.1191 11.37694,-8.4666 7.93782,2.2489 15.87476,-6.3501 7.61822,4.8834 7.06618,15.3569 -3.64668,18.1622 13.12321,-18.5627 -2.20135,-18.1191 -2.57285,-4.3903 -0.0701,0.047 -6.63524,-11.4927 5.26354,-11.3731 3.47736,-12.9794 5.3e-4,9e-4 -1.8e-4,3e-4 20.72111,3.677 5.70862,0.3686 4.5513,-16.9845 -12.52981,1.5821 -19.27496,-6.1332 -14.94421,13.6225 -4.89483,11.6417 -12.43586,-12.435 3.17494,-4.763 13.54431,-16.105 -9.5012,-9.5009 -7.21771,-10.2451 -13.27068,10e-5 1.29626,17.28 7.09061,0.6405 3.50075,5.0051 -7.09868,5.1671 -4.57144,4.7792 -3.98527,0.7732 -2.24654,0.076 -3.90838,-22.6423 -19.15141,-8.037 -6.74638,3.1307 -6.92157,25.8303 18.90876,18.9088 -0.66219,7.4086 -16.53634,12.5672 -21.56372,-7.9374 -1.05798,1.9845 -1.32325,3.8369 1.85273,6.3498 z"
         id="path5247" />
      <path
         id="path5249"
         d="m 207.96903,1357.8234 -3.50137,-5.0056 -7.09139,-0.6416 -1.29594,-17.2788 -5.08271,0.1158 -16.79217,-7.1548 -9.51486,-20.6463 13.90569,12.2389 16.83365,1.5601 8.03724,-4.1552 2.43825,-16.9243 5.91706,-5.7498 -1.64398,-14.0869 -16.28525,8.1906 -1.11034,18.315 -13.02078,-5.6194 -2.02132,-7.9988 -13.43672,-10.5729 0.42008,-9.0393 9.76632,-13.7979 17.55228,-5.923 -22.63734,-2.0837 -14.59096,10.966 -2.51569,4.4233 0.0762,0.037 -6.63527,11.4926 -12.48118,1.1282 -12.97915,3.4782 5e-4,-9e-4 h 3.6e-4 l -7.17617,-19.7835 -2.53511,-5.1281 -16.98464,4.5507 7.63501,10.0601 4.32596,19.7592 19.26956,6.1308 12.52941,-1.5818 -4.55114,16.9873 -5.7123,-0.3681 -20.71953,-3.6772 -3.47736,12.9787 -5.263735,11.3733 6.635425,11.4927 14.3168,-9.7626 -2.9906,-6.4609 2.58418,-5.5343 8.02417,3.5641 6.42459,1.5694 2.66231,3.0647 1.18867,1.9078 -17.65459,14.7059 2.61547,20.6041 6.08444,4.2772 25.83048,-6.9209 6.92117,-25.8299 6.7471,-3.1308 19.15166,8.0373 3.90791,22.6434 2.2476,-0.076 3.98451,-0.7725 4.57271,-4.7794 z"
         style="fill:#bbc0bf;fill-opacity:1;fill-rule:evenodd;stroke:none;stroke-width:1;stroke-linecap:round;stroke-linejoin:round;stroke-miterlimit:4;stroke-dasharray:none;stroke-opacity:1" />
      <path
         style="fill:#ecedef;fill-opacity:1;fill-rule:evenodd;stroke:none;stroke-width:1;stroke-linecap:round;stroke-linejoin:round;stroke-miterlimit:4;stroke-dasharray:none;stroke-opacity:1"
         d="m 391.44083,1253.1604 6.08565,-0.5295 4.10134,-5.8205 15.61185,7.5171 2.44106,-4.4597 14.59233,-10.965 22.63765,2.083 -17.55205,5.9233 -9.7679,13.7983 -0.42012,9.038 13.43775,10.5738 2.02094,7.9992 13.02161,5.6196 1.04935,-18.1986 -15.30608,-10.1191 11.37694,-8.4666 7.93781,2.2489 15.87477,-6.3501 7.61821,4.8834 7.06619,15.3569 -3.64669,18.1622 13.12322,-18.5627 -2.20136,-18.1191 -2.57285,-4.3903 -0.0701,0.047 -6.63524,-11.4927 5.26355,-11.3731 3.47736,-12.9794 5.3e-4,9e-4 -1.8e-4,3e-4 20.7211,3.677 5.70862,0.3686 4.55129,-16.9845 -12.52981,1.5821 -19.27495,-6.1332 -14.94421,13.6225 -4.89483,11.6417 -12.43586,-12.435 3.17494,-4.763 13.54431,-16.105 -9.5012,-9.5009 -7.21771,-10.2451 -13.27067,1e-4 1.29625,17.2799 7.09061,0.6405 3.50075,5.0052 -7.09868,5.1669 -4.57144,4.7792 -3.98526,0.7733 -2.24655,0.076 -3.90837,-22.6422 -19.15141,-8.0371 -6.74639,3.1306 -6.92156,25.8304 18.90876,18.9087 -0.66219,7.4086 -16.53634,12.5672 -21.56372,-7.9374 -1.05798,1.9845 -1.32325,3.8369 1.85273,6.3498 z"
         id="path5251" />
      <path
         style="fill:#ecedef;fill-opacity:1;fill-rule:evenodd;stroke:none;stroke-width:1;stroke-linecap:round;stroke-linejoin:round;stroke-miterlimit:4;stroke-dasharray:none;stroke-opacity:1"
         d="m 12.419947,1654.4597 6.08564,-0.5295 4.10134,-5.8205 15.61185,7.5171 2.44108,-4.4597 14.59233,-10.965 22.63765,2.083 -17.55205,5.9233 -9.76791,13.7983 -0.42011,9.038 13.43775,10.5738 2.02094,7.9992 13.02161,5.6197 1.04935,-18.1987 -15.30609,-10.1191 11.37694,-8.4666 7.93782,2.2489 15.87476,-6.3501 7.618223,4.8834 7.06617,15.3569 -3.64668,18.1622 13.12321,-18.5627 -2.20135,-18.1191 -2.57285,-4.3903 -0.0701,0.047 -6.63524,-11.4927 5.26354,-11.3731 3.47736,-12.9794 5.3e-4,9e-4 -1.8e-4,3e-4 20.7211,3.677 5.70862,0.3686 4.5513,-16.9845 -12.52981,1.5821 -19.27495,-6.1332 -14.94421,13.6225 -4.89483,11.6417 -12.435863,-12.435 3.17494,-4.763 13.544313,-16.105 -9.501203,-9.5009 -7.21771,-10.2451 -13.27068,10e-5 1.29626,17.28 7.09061,0.6405 3.50075,5.0051 -7.09868,5.1671 -4.57144,4.7792 -3.98527,0.7732 -2.24654,0.076 -3.90838,-22.6423 -19.15141,-8.037 -6.74638,3.1307 -6.92157,25.8303 18.90877,18.9088 -0.6622,7.4086 -16.53634,12.5672 -21.56371,-7.9374 -1.05798,1.9845 -1.32325,3.8369 1.85273,6.3498 z"
         id="path5253" />
      <path
         id="path5255"
         d="m 86.502707,1593.5493 -3.50136,-5.0056 -7.0914,-0.6416 -1.29594,-17.2788 -5.08271,0.1158 -16.79217,-7.1548 -9.51486,-20.6463 13.90569,12.2389 16.83365,1.5601 8.03724,-4.1552 2.43825,-16.9243 5.91706,-5.7498 -1.64398,-14.0869 -16.28524,8.1906 -1.11034,18.315 -13.02078,-5.6194 -2.02132,-7.9988 -13.43672,-10.5729 0.42008,-9.0393 9.76632,-13.7979 17.55228,-5.923 -22.63734,-2.0837 -14.59097,10.966 -2.51568,4.4233 0.0762,0.037 -6.63528,11.4926 -12.48118,1.1282 -12.97915,3.4782 5e-4,-9e-4 h 3.6e-4 l -7.17618,-19.7835 -2.5351,-5.128 -16.98464,4.5506 7.63501,10.0601 4.32596,19.7592 19.26956,6.1308 12.52942,-1.5818 -4.55114,16.9873 -5.71231,-0.368 -20.71953,-3.6773 -3.47736,12.9787 -5.26373,11.3733 6.63542,11.4927 14.3168,-9.7626 -2.9906,-6.4609 2.58418,-5.5343 8.02417,3.5641 6.4246,1.5694 2.66231,3.0647 1.18867,1.9078 -17.6546,14.7059 2.61547,20.6041 6.08444,4.2772 25.83049,-6.9209 6.92117,-25.8299 6.7471,-3.1308 19.15166,8.0373 3.90791,22.6434 2.2476,-0.076 3.98451,-0.7725 4.57271,-4.7794 z"
         style="fill:#bbc0bf;fill-opacity:1;fill-rule:evenodd;stroke:none;stroke-width:1;stroke-linecap:round;stroke-linejoin:round;stroke-miterlimit:4;stroke-dasharray:none;stroke-opacity:1" />
      <path
         id="path5257"
         d="m 494.77368,1803.927 -3.50136,-5.0056 -7.0914,-0.6416 -1.29594,-17.2788 -5.08271,0.1158 -16.79217,-7.1548 -9.51486,-20.6463 13.90569,12.2389 16.83365,1.5601 8.03724,-4.1552 2.43825,-16.9243 5.91706,-5.7498 -1.64398,-14.0869 -16.28524,8.1906 -1.11034,18.315 -13.02078,-5.6194 -2.02132,-7.9989 -13.43672,-10.5728 0.42008,-9.0393 9.76632,-13.7979 17.55228,-5.923 -22.63734,-2.0837 -14.59097,10.966 -2.51568,4.4233 0.0762,0.037 -6.63528,11.4926 -12.48118,1.1282 -12.97915,3.4782 5e-4,-9e-4 h 3.6e-4 l -7.17617,-19.7835 -2.53511,-5.1281 -16.98464,4.5507 7.63501,10.0601 4.32596,19.7592 19.26956,6.1308 12.52942,-1.5818 -4.55114,16.9873 -5.71231,-0.3681 -20.71953,-3.6772 -3.47736,12.9787 -5.26373,11.3733 6.63542,11.4927 14.3168,-9.7626 -2.9906,-6.4609 2.58418,-5.5344 8.02417,3.5642 6.4246,1.5694 2.66231,3.0647 1.18867,1.9077 -17.6546,14.7059 2.61547,20.6041 6.08444,4.2772 25.83049,-6.9209 6.92117,-25.8299 6.7471,-3.1308 19.15166,8.0373 3.90791,22.6434 2.2476,-0.076 3.98451,-0.7725 4.57271,-4.7794 z"
         style="fill:#bbc0bf;fill-opacity:1;fill-rule:evenodd;stroke:none;stroke-width:1;stroke-linecap:round;stroke-linejoin:round;stroke-miterlimit:4;stroke-dasharray:none;stroke-opacity:1" />
      <path
         id="path5259"
         d="m 533.7463,1687.4432 -2.58434,5.5352 2.98999,6.462 -14.31592,9.7617 2.6417,4.344 2.19987,18.1198 -13.12272,18.5632 3.64629,-18.1621 -7.06572,-15.3584 -7.6171,-4.8829 -15.87603,6.3505 -7.93802,-2.2494 -11.3776,8.4673 15.23577,10.0081 16.41656,-8.196 1.64383,14.0861 -5.91644,5.75 -2.43809,16.9229 -8.03827,4.1558 -16.83256,-1.5589 -13.90562,-12.2392 9.51415,20.6464 16.79226,7.1531 5.08857,-0.033 -0.006,-0.085 h 13.2705 l 7.21764,10.2449 9.50176,9.5012 h -10e-4 0.002 l -13.54491,16.1065 -3.17345,4.7595 12.43334,12.4337 4.8948,-11.6421 14.94896,-13.6261 -4.32531,-19.7532 -7.63468,-10.06 16.98707,-4.5522 2.53731,5.1311 7.17528,19.7822 12.97854,-3.4778 12.48142,-1.1281 6.63525,-11.4928 -15.61301,-7.5174 -4.10001,5.8203 -6.0849,0.5292 -0.92552,-8.7312 -1.85312,-6.3485 1.32292,-3.838 1.05781,-1.9833 21.56303,7.9364 16.53595,-12.5672 0.66196,-7.4078 -18.90892,-18.9094 -25.82994,6.921 -6.0849,-4.2778 -2.61535,-20.6044 17.65577,-14.7061 -1.18959,-1.9084 -2.66134,-3.0644 -6.42545,-1.5704 z"
         style="fill:#54585f;fill-opacity:1;fill-rule:evenodd;stroke:none;stroke-width:1;stroke-linecap:round;stroke-linejoin:round;stroke-miterlimit:4;stroke-dasharray:none;stroke-opacity:1" />
      <path
         id="path5261"
         d="m 284.60056,1794.7181 6.08565,-0.5295 4.10134,-5.8205 15.61185,7.5171 2.44107,-4.4597 14.59233,-10.965 22.63765,2.083 -17.55205,5.9233 -9.76791,13.7983 -0.42011,9.038 13.43775,10.5738 2.02094,7.9992 13.02161,5.6197 1.04935,-18.1987 -15.30609,-10.1191 11.37694,-8.4666 7.93782,2.2489 15.87476,-6.3501 7.61822,4.8834 7.06618,15.3569 -3.64668,18.1622 13.12322,-18.5627 -2.20135,-18.1191 -2.57285,-4.3903 -0.0701,0.047 -6.63525,-11.4927 5.26355,-11.3731 3.47736,-12.9794 5.3e-4,9e-4 -1.8e-4,3e-4 20.7211,3.677 5.70862,0.3686 4.5513,-16.9845 -12.52981,1.5821 -19.27495,-6.1332 -14.94422,13.6225 -4.89483,11.6417 -12.43586,-12.435 3.17494,-4.763 13.54431,-16.105 -9.5012,-9.5009 -7.21771,-10.2451 -13.27068,10e-5 1.29626,17.28 7.09061,0.6405 3.50075,5.0051 -7.09868,5.1671 -4.57144,4.7792 -3.98527,0.7732 -2.24654,0.076 -3.90838,-22.6423 -19.15141,-8.037 -6.74638,3.1307 -6.92157,25.8303 18.90876,18.9088 -0.66219,7.4086 -16.53634,12.5672 -21.56372,-7.9374 -1.05798,1.9845 -1.32325,3.8369 1.85273,6.3498 z"
         style="fill:#ecedef;fill-opacity:1;fill-rule:evenodd;stroke:none;stroke-width:1;stroke-linecap:round;stroke-linejoin:round;stroke-miterlimit:4;stroke-dasharray:none;stroke-opacity:1" />
      <path
         style="fill:#54585f;fill-opacity:1;fill-rule:evenodd;stroke:none;stroke-width:1;stroke-linecap:round;stroke-linejoin:round;stroke-miterlimit:4;stroke-dasharray:none;stroke-opacity:1"
         d="m 268.87833,1700.0998 -2.58434,5.5352 2.98999,6.462 -14.31592,9.7617 2.6417,4.344 2.19987,18.1198 -13.12272,18.5632 3.64629,-18.1621 -7.06572,-15.3584 -7.6171,-4.8829 -15.87603,6.3505 -7.93802,-2.2494 -11.3776,8.4673 15.23577,10.0081 16.41656,-8.196 1.64383,14.0861 -5.91644,5.75 -2.43809,16.9229 -8.03827,4.1558 -16.83256,-1.5589 -13.90562,-12.2392 9.51415,20.6464 16.79226,7.1531 5.08857,-0.033 -0.006,-0.085 h 13.2705 l 7.21764,10.2449 9.50176,9.5012 h -0.001 0.002 l -13.54491,16.1065 -3.17345,4.7595 12.43334,12.4337 4.8948,-11.6421 14.94896,-13.6261 -4.32531,-19.7532 -7.63468,-10.06 16.98707,-4.5522 2.53731,5.1311 7.17528,19.7822 12.97854,-3.4778 12.48142,-1.1281 6.63525,-11.4928 -15.61301,-7.5174 -4.10001,5.8203 -6.0849,0.5292 -0.92552,-8.7312 -1.85312,-6.3485 1.32292,-3.838 1.05781,-1.9833 21.56303,7.9364 16.53595,-12.5672 0.66196,-7.4078 -18.90892,-18.9094 -25.82994,6.921 -6.0849,-4.2778 -2.61535,-20.6044 17.65577,-14.7061 -1.18959,-1.9084 -2.66134,-3.0644 -6.42545,-1.5704 z"
         id="path5263" />
      <path
         style="fill:#bbc0bf;fill-opacity:1;fill-rule:evenodd;stroke:none;stroke-width:1;stroke-linecap:round;stroke-linejoin:round;stroke-miterlimit:4;stroke-dasharray:none;stroke-opacity:1"
         d="m 366.03233,1886.7356 -3.50136,-5.0056 -7.0914,-0.6416 -1.29593,-17.2788 -5.08272,0.1158 -16.79217,-7.1548 -9.51486,-20.6463 13.90569,12.2389 16.83365,1.5601 8.03724,-4.1552 2.43825,-16.9243 5.91706,-5.7498 -1.64398,-14.0869 -16.28524,8.1906 -1.11034,18.315 -13.02078,-5.6194 -2.02132,-7.9989 -13.43672,-10.5728 0.42008,-9.0393 9.76632,-13.7979 17.55228,-5.923 -22.63734,-2.0837 -14.59097,10.966 -2.51568,4.4233 0.0762,0.037 -6.63528,11.4926 -12.48118,1.1282 -12.97915,3.4782 4.9e-4,-9e-4 h 3.6e-4 l -7.17617,-19.7835 -2.5351,-5.128 -16.98465,4.5507 7.63502,10.06 4.32596,19.7592 19.26956,6.1308 12.52942,-1.5818 -4.55114,16.9873 -5.71231,-0.3681 -20.71953,-3.6772 -3.47736,12.9787 -5.26373,11.3733 6.63542,11.4927 14.3168,-9.7626 -2.9906,-6.4609 2.58418,-5.5344 8.02418,3.5642 6.4246,1.5694 2.66231,3.0647 1.18867,1.9077 -17.65461,14.7059 2.61548,20.6041 6.08443,4.2772 25.83049,-6.9209 6.92118,-25.8299 6.74709,-3.1308 19.15166,8.0373 3.90791,22.6434 2.2476,-0.076 3.98451,-0.7725 4.57271,-4.7794 z"
         id="path5265" />
      <path
         style="fill:#54585f;fill-opacity:1;fill-rule:evenodd;stroke:none;stroke-width:1;stroke-linecap:round;stroke-linejoin:round;stroke-miterlimit:4;stroke-dasharray:none;stroke-opacity:1"
         d="m 404.9726,1770.2268 -2.58433,5.5351 2.98998,6.4621 -14.31592,9.7617 2.6417,4.3439 2.19988,18.1198 -13.12273,18.5633 3.64629,-18.1622 -7.06571,-15.3583 -7.61711,-4.8829 -15.87603,6.3505 -7.93802,-2.2494 -11.3776,8.4672 15.23576,10.0081 16.41657,-8.1959 1.64383,14.086 -5.91643,5.75 -2.4381,16.923 -8.03827,4.1558 -16.83257,-1.559 -13.90561,-12.239 9.51415,20.6462 16.79225,7.1531 5.08858,-0.033 -0.006,-0.085 h 13.27051 l 7.21765,10.245 9.50174,9.5011 h -10e-4 0.002 l -13.54492,16.1066 -3.17345,4.7594 12.43334,12.4339 4.8948,-11.6423 14.94896,-13.6259 -4.32531,-19.7534 -7.63469,-10.0598 16.98709,-4.5523 2.53731,5.131 7.17527,19.7824 12.97854,-3.478 12.48142,-1.1281 6.63525,-11.4928 -15.61301,-7.5173 -4.10001,5.8203 -6.0849,0.5291 -0.92552,-8.7311 -1.85312,-6.3485 1.32293,-3.8381 1.05781,-1.9832 21.56303,7.9364 16.53595,-12.5672 0.66196,-7.4078 -18.90892,-18.9094 -25.82994,6.9211 -6.0849,-4.2779 -2.61535,-20.6043 17.65577,-14.7062 -1.18959,-1.9085 -2.66134,-3.0643 -6.42545,-1.5704 z"
         id="path5267" />
      <path
         style="fill:#ecedef;fill-opacity:1;fill-rule:evenodd;stroke:none;stroke-width:1;stroke-linecap:round;stroke-linejoin:round;stroke-miterlimit:4;stroke-dasharray:none;stroke-opacity:1"
         d="m 155.81727,1877.5078 6.08565,-0.5295 4.10134,-5.8205 15.61185,7.5171 2.44107,-4.4597 14.59233,-10.965 22.63765,2.083 -17.55205,5.9233 -9.76791,13.7983 -0.42011,9.038 13.43775,10.5738 2.02094,7.9992 13.02161,5.6197 1.04935,-18.1987 -15.30609,-10.1191 11.37694,-8.4666 7.93782,2.2489 15.87476,-6.3501 7.61822,4.8834 7.06618,15.3569 -3.64668,18.1622 13.12321,-18.5627 -2.20135,-18.1191 -2.57285,-4.3903 -0.0701,0.047 -6.63524,-11.4927 5.26354,-11.3731 3.47736,-12.9794 5.3e-4,9e-4 -1.8e-4,3e-4 20.7211,3.677 5.70862,0.3686 4.5513,-16.9845 -12.52981,1.5821 -19.27495,-6.1332 -14.94421,13.6225 -4.89483,11.6417 -12.43586,-12.435 3.17494,-4.763 13.54431,-16.105 -9.5012,-9.5009 -7.21771,-10.2451 -13.27068,10e-5 1.29626,17.28 7.09061,0.6405 3.50075,5.0051 -7.09868,5.1671 -4.57144,4.7792 -3.98527,0.7732 -2.24654,0.076 -3.90838,-22.6423 -19.15141,-8.037 -6.74638,3.1307 -6.92157,25.8303 18.90876,18.9088 -0.66219,7.4086 -16.53634,12.5672 -21.56372,-7.9374 -1.05798,1.9845 -1.32325,3.8369 1.85273,6.3498 z"
         id="path5269" />
      <path
         style="fill:#ecedef;fill-opacity:1;fill-rule:evenodd;stroke:none;stroke-width:1;stroke-linecap:round;stroke-linejoin:round;stroke-miterlimit:4;stroke-dasharray:none;stroke-opacity:1"
         d="m 291.91153,1947.6348 6.08565,-0.5295 4.10134,-5.8205 15.61185,7.5171 2.44107,-4.4597 14.59233,-10.965 22.63765,2.083 -17.55205,5.9233 -9.76791,13.7983 -0.42011,9.038 13.43775,10.5737 2.02094,7.9992 13.02161,5.6197 1.04935,-18.1987 -15.30609,-10.119 11.37694,-8.4666 7.93782,2.2489 15.87476,-6.3501 7.61822,4.8834 7.06618,15.3569 -3.64668,18.1621 13.12322,-18.5626 -2.20135,-18.1191 -2.57285,-4.3903 -0.0701,0.047 -6.63525,-11.4927 5.26355,-11.3731 3.47736,-12.9794 5.3e-4,9e-4 -1.8e-4,3e-4 20.7211,3.677 5.70862,0.3686 4.5513,-16.9846 -12.52981,1.5822 -19.27495,-6.1332 -14.94422,13.6225 -4.89483,11.6416 -12.43586,-12.435 3.17494,-4.7629 13.54431,-16.105 -9.5012,-9.5009 -7.21771,-10.2452 -13.27068,10e-5 1.29626,17.28 7.09061,0.6405 3.50075,5.0051 -7.09868,5.1671 -4.57144,4.7792 -3.98527,0.7732 -2.24654,0.076 -3.90838,-22.6423 -19.15141,-8.037 -6.74638,3.1307 -6.92157,25.8303 18.90876,18.9088 -0.66219,7.4086 -16.53634,12.5672 -21.56372,-7.9374 -1.05798,1.9845 -1.32325,3.8369 1.85273,6.3498 z"
         id="path5271" />
      <path
         style="fill:#bbc0bf;fill-opacity:1;fill-rule:evenodd;stroke:none;stroke-width:1;stroke-linecap:round;stroke-linejoin:round;stroke-miterlimit:4;stroke-dasharray:none;stroke-opacity:1"
         d="m 601.61458,1262.3656 -3.50136,-5.0055 -7.0914,-0.6416 -1.29594,-17.2788 -5.08271,0.1158 -16.79217,-7.1549 -9.51486,-20.6463 13.90569,12.2389 16.83365,1.5601 8.03724,-4.1552 2.43825,-16.9242 5.91706,-5.7498 -1.64398,-14.087 -16.28524,8.1906 -1.11034,18.315 -13.02078,-5.6194 -2.02132,-7.9989 -13.43672,-10.5728 0.42008,-9.0391 9.76632,-13.7981 17.55228,-5.9229 -22.63734,-2.0836 -14.59097,10.9658 -2.51568,4.4233 0.0762,0.037 -6.63528,11.4927 -12.48118,1.1282 -12.97915,3.4782 5e-4,-9e-4 h 3.6e-4 l -7.17617,-19.7835 -2.53511,-5.1281 -16.98464,4.5508 7.63501,10.06 4.32596,19.7592 19.26956,6.1308 12.52942,-1.5818 -4.55114,16.9874 -5.71231,-0.3682 -20.71953,-3.6772 -3.47736,12.9786 -5.26373,11.3733 6.63542,11.4927 14.3168,-9.7626 -2.9906,-6.4609 2.58418,-5.5344 8.02417,3.5642 6.4246,1.5694 2.66231,3.0647 1.18867,1.9077 -17.6546,14.7059 2.61547,20.6041 6.08444,4.2772 25.83049,-6.9209 6.92117,-25.8299 6.7471,-3.1308 19.15166,8.0373 3.90791,22.6434 2.2476,-0.076 3.98451,-0.7725 4.57271,-4.7794 z"
         id="path5273" />
      <path
         style="fill:#54585f;fill-opacity:1;fill-rule:evenodd;stroke:none;stroke-width:1;stroke-linecap:round;stroke-linejoin:round;stroke-miterlimit:4;stroke-dasharray:none;stroke-opacity:1"
         d="m 504.50321,1075.7472 -2.58433,5.5351 2.98999,6.4621 -14.31592,9.7617 2.6417,4.3439 2.19987,18.1198 -13.12272,18.5633 3.64629,-18.1622 -7.06571,-15.3583 -7.61711,-4.8829 -15.87603,6.3505 -7.93802,-2.2494 -11.3776,8.4672 15.23576,10.0081 16.41657,-8.1958 1.64383,14.086 -5.91644,5.75 -2.43809,16.923 -8.03827,4.1558 -16.83256,-1.559 -13.90561,-12.2391 9.51414,20.6463 16.79226,7.1531 5.08858,-0.033 -0.006,-0.085 h 13.27051 l 7.21764,10.2449 9.50175,9.5012 h -10e-4 0.002 l -13.54491,16.1065 -3.17345,4.7595 12.43334,12.4338 4.8948,-11.6422 14.94895,-13.626 -4.32531,-19.7533 -7.63468,-10.0599 16.98708,-4.5523 2.53731,5.1311 7.17527,19.7823 12.97854,-3.4779 12.48142,-1.1281 6.63525,-11.4928 -15.61301,-7.5174 -4.10001,5.8203 -6.0849,0.5292 -0.92552,-8.7312 -1.85312,-6.3485 1.32292,-3.838 1.05781,-1.9833 21.56303,7.9364 16.53595,-12.5672 0.66196,-7.4078 -18.90892,-18.9094 -25.82994,6.921 -6.0849,-4.2778 -2.61535,-20.6044 17.65577,-14.7061 -1.18959,-1.9084 -2.66134,-3.0644 -6.42545,-1.5704 z"
         id="path5275" />
      <path
         id="path5277"
         d="m 336.7517,1275.0357 -3.50136,-5.0055 -7.0914,-0.6416 -1.29594,-17.2788 -5.08271,0.1158 -16.79217,-7.1549 -9.51486,-20.6463 13.90569,12.2389 16.83365,1.5601 8.03724,-4.1552 2.43825,-16.9242 5.91706,-5.7498 -1.64398,-14.087 -16.28524,8.1906 -1.11034,18.315 -13.02078,-5.6194 -2.02132,-7.9989 -13.43672,-10.5728 0.42008,-9.0391 9.76632,-13.7981 17.55228,-5.9229 -22.63734,-2.0836 -14.59097,10.9658 -2.51568,4.4233 0.0762,0.037 -6.63528,11.4927 -12.48118,1.1282 -12.97915,3.4782 5e-4,-9e-4 h 3.6e-4 l -7.17617,-19.7835 -2.53511,-5.1281 -16.98464,4.5508 7.63501,10.06 4.32596,19.7592 19.26956,6.1308 12.52942,-1.5818 -4.55114,16.9874 -5.71231,-0.3682 -20.71953,-3.6772 -3.47736,12.9786 -5.26373,11.3733 6.63542,11.4927 14.3168,-9.7626 -2.9906,-6.4609 2.58418,-5.5344 8.02417,3.5642 6.4246,1.5694 2.66231,3.0647 1.18867,1.9077 -17.6546,14.7059 2.61547,20.6041 6.08444,4.2772 25.83049,-6.9209 6.92117,-25.8299 6.7471,-3.1308 19.15166,8.0373 3.90791,22.6434 2.2476,-0.076 3.98451,-0.7725 4.57271,-4.7794 z"
         style="fill:#bbc0bf;fill-opacity:1;fill-rule:evenodd;stroke:none;stroke-width:1;stroke-linecap:round;stroke-linejoin:round;stroke-miterlimit:4;stroke-dasharray:none;stroke-opacity:1" />
      <path
         style="fill:#54585f;fill-opacity:1;fill-rule:evenodd;stroke:none;stroke-width:1;stroke-linecap:round;stroke-linejoin:round;stroke-miterlimit:4;stroke-dasharray:none;stroke-opacity:1"
         d="m 375.72116,1158.5395 -2.58433,5.5351 2.98999,6.4621 -14.31592,9.7617 2.6417,4.3439 2.19987,18.1198 -13.12272,18.5633 3.64629,-18.1622 -7.06571,-15.3583 -7.61711,-4.8829 -15.87603,6.3505 -7.93802,-2.2494 -11.3776,8.4672 15.23576,10.0081 16.41657,-8.1958 1.64383,14.086 -5.91644,5.75 -2.43809,16.923 -8.03827,4.1558 -16.83256,-1.5589 -13.90561,-12.2391 9.51414,20.6463 16.79226,7.1531 5.08858,-0.033 -0.006,-0.085 h 13.27051 l 7.21764,10.2449 9.50175,9.5012 h -10e-4 0.002 l -13.54491,16.1065 -3.17345,4.7595 12.43334,12.4338 4.8948,-11.6422 14.94895,-13.626 -4.32531,-19.7534 -7.63468,-10.0598 16.98708,-4.5524 2.53731,5.1312 7.17527,19.7823 12.97854,-3.478 12.48142,-1.128 6.63525,-11.4928 -15.61301,-7.5174 -4.10001,5.8203 -6.0849,0.5292 -0.92552,-8.7312 -1.85312,-6.3485 1.32292,-3.838 1.05781,-1.9833 21.56303,7.9364 16.53595,-12.5672 0.66196,-7.4078 -18.90892,-18.9094 -25.82994,6.9211 -6.0849,-4.2779 -2.61535,-20.6043 17.65577,-14.7062 -1.18959,-1.9084 -2.66134,-3.0644 -6.42545,-1.5704 z"
         id="path5279" />
      <path
         id="path5281"
         d="m 465.52725,1192.2383 -3.50136,-5.0056 -7.0914,-0.6416 -1.29594,-17.2788 -5.08271,0.1158 -16.79217,-7.1548 -9.51486,-20.6463 13.90569,12.2389 16.83365,1.5601 8.03724,-4.1552 2.43825,-16.9243 5.91706,-5.7498 -1.64398,-14.0869 -16.28524,8.1906 -1.11034,18.315 -13.02078,-5.6194 -2.02132,-7.9989 -13.43672,-10.5728 0.42008,-9.0393 9.76632,-13.7979 17.55228,-5.923 -22.63734,-2.0837 -14.59097,10.966 -2.51568,4.4233 0.0762,0.037 -6.63528,11.4926 -12.48118,1.1282 -12.97915,3.4782 5e-4,-9e-4 h 3.6e-4 l -7.17617,-19.7835 -2.53511,-5.128 -16.98464,4.5507 7.63501,10.06 4.32596,19.7592 19.26956,6.1308 12.52942,-1.5818 -4.55114,16.9873 -5.71231,-0.368 -20.71953,-3.6773 -3.47736,12.9787 -5.26373,11.3733 6.63542,11.4927 14.3168,-9.7626 -2.9906,-6.4609 2.58418,-5.5344 8.02417,3.5642 6.4246,1.5694 2.66231,3.0647 1.18867,1.9077 -17.6546,14.7059 2.61547,20.6041 6.08444,4.2772 25.83049,-6.9209 6.92117,-25.8299 6.7471,-3.1308 19.15166,8.0373 3.90791,22.6434 2.2476,-0.076 3.98451,-0.7725 4.57271,-4.7794 z"
         style="fill:#bbc0bf;fill-opacity:1;fill-rule:evenodd;stroke:none;stroke-width:1;stroke-linecap:round;stroke-linejoin:round;stroke-miterlimit:4;stroke-dasharray:none;stroke-opacity:1" />
    </g>
    <g
       transform="translate(-374.38542,60.854167)"
       id="g5362">
      <path
         style="fill:none;fill-opacity:1;fill-rule:evenodd;stroke:#000000;stroke-width:7.51200008;stroke-linecap:round;stroke-linejoin:round;stroke-miterlimit:4;stroke-dasharray:none;stroke-opacity:1"
         d="m 482.05455,1241.1615 -12.81758,27.4527 14.82952,32.0501 -71.00292,48.415 13.10209,21.5446 10.91073,89.8693 -65.08499,92.0688 18.08456,-90.0796 -35.04393,-76.1731 -37.77869,-24.2173 -78.74065,31.4969 -39.37034,-11.1566 -56.4297,41.9947 75.56511,49.6375 81.42154,-40.6492 8.15292,69.8623 -29.34385,28.5186 -12.09224,83.933 -39.86757,20.6118 -83.48475,-7.7323 -68.967921,-60.7026 47.187461,102.3997 83.28486,35.4777 25.23794,-0.164 -0.0297,-0.4219 h 65.81797 l 35.79746,50.8119 47.126,47.1234 h -0.006 0.009 l -67.17895,79.8836 -15.7394,23.606 61.66585,61.668 24.27682,-57.742 74.14257,-67.581 -21.45234,-97.9711 -37.86584,-49.8941 84.25111,-22.5775 12.58435,25.448 35.58733,98.1146 64.3699,-17.2491 61.90433,-5.5951 32.90895,-57.0011 -77.43611,-37.2844 -20.33492,28.8672 -30.17938,2.6247 -4.59031,-43.3041 -9.19096,-31.4867 6.56132,-19.0354 5.24642,-9.8367 106.94654,39.3623 82.01364,-62.3297 3.28316,-36.7408 -93.78288,-93.7851 -128.10924,34.326 -30.17938,-21.2164 -12.97138,-102.1921 87.56763,-72.9381 -5.90005,-9.465 -13.19948,-15.1986 -31.86842,-7.7887 z"
         id="path5355" />
    </g>
    <g
       id="g5626"
       transform="rotate(120,451.753,1375.6435)">
      <path
         id="path5624"
         d="m 482.05455,1241.1615 -12.81758,27.4527 14.82952,32.0501 -71.00292,48.415 13.10209,21.5446 10.91073,89.8693 -65.08499,92.0688 18.08456,-90.0796 -35.04393,-76.1731 -37.77869,-24.2173 -78.74065,31.4969 -39.37034,-11.1566 -56.4297,41.9947 75.56511,49.6375 81.42154,-40.6492 8.15292,69.8623 -29.34385,28.5186 -12.09224,83.933 -39.86757,20.6118 -83.48475,-7.7323 -68.967921,-60.7026 47.187461,102.3997 83.28486,35.4777 25.23794,-0.164 -0.0297,-0.4219 h 65.81797 l 35.79746,50.8119 47.126,47.1234 h -0.006 0.009 l -67.17895,79.8836 -15.7394,23.606 61.66585,61.668 24.27682,-57.742 74.14257,-67.581 -21.45234,-97.9711 -37.86584,-49.8941 84.25111,-22.5775 12.58435,25.448 35.58733,98.1146 64.3699,-17.2491 61.90433,-5.5951 32.90895,-57.0011 -77.43611,-37.2844 -20.33492,28.8672 -30.17938,2.6247 -4.59031,-43.3041 -9.19096,-31.4867 6.56132,-19.0354 5.24642,-9.8367 106.94654,39.3623 82.01364,-62.3297 3.28316,-36.7408 -93.78288,-93.7851 -128.10924,34.326 -30.17938,-21.2164 -12.97138,-102.1921 87.56763,-72.9381 -5.90005,-9.465 -13.19948,-15.1986 -31.86842,-7.7887 z"
         style="fill:none;fill-opacity:1;fill-rule:evenodd;stroke:#000000;stroke-width:7.51200008;stroke-linecap:round;stroke-linejoin:round;stroke-miterlimit:4;stroke-dasharray:none;stroke-opacity:1" />
    </g>
    <g
       transform="rotate(-120,486.88798,1591.7955)"
       id="g5630">
      <path
         style="fill:none;fill-opacity:1;fill-rule:evenodd;stroke:#000000;stroke-width:7.51200008;stroke-linecap:round;stroke-linejoin:round;stroke-miterlimit:4;stroke-dasharray:none;stroke-opacity:1"
         d="m 482.05455,1241.1615 -12.81758,27.4527 14.82952,32.0501 -71.00292,48.415 13.10209,21.5446 10.91073,89.8693 -65.08499,92.0688 18.08456,-90.0796 -35.04393,-76.1731 -37.77869,-24.2173 -78.74065,31.4969 -39.37034,-11.1566 -56.4297,41.9947 75.56511,49.6375 81.42154,-40.6492 8.15292,69.8623 -29.34385,28.5186 -12.09224,83.933 -39.86757,20.6118 -83.48475,-7.7323 -68.967921,-60.7026 47.187461,102.3997 83.28486,35.4777 25.23794,-0.164 -0.0297,-0.4219 h 65.81797 l 35.79746,50.8119 47.126,47.1234 h -0.006 0.009 l -67.17895,79.8836 -15.7394,23.606 61.66585,61.668 24.27682,-57.742 74.14257,-67.581 -21.45234,-97.9711 -37.86584,-49.8941 84.25111,-22.5775 12.58435,25.448 35.58733,98.1146 64.3699,-17.2491 61.90433,-5.5951 32.90895,-57.0011 -77.43611,-37.2844 -20.33492,28.8672 -30.17938,2.6247 -4.59031,-43.3041 -9.19096,-31.4867 6.56132,-19.0354 5.24642,-9.8367 106.94654,39.3623 82.01364,-62.3297 3.28316,-36.7408 -93.78288,-93.7851 -128.10924,34.326 -30.17938,-21.2164 -12.97138,-102.1921 87.56763,-72.9381 -5.90005,-9.465 -13.19948,-15.1986 -31.86842,-7.7887 z"
         id="path5628" />
    </g>
    <g
       id="g5634"
       transform="rotate(-120,48.988559,1612.7419)">
      <path
         id="path5632"
         d="m 482.05455,1241.1615 -12.81758,27.4527 14.82952,32.0501 -71.00292,48.415 13.10209,21.5446 10.91073,89.8693 -65.08499,92.0688 18.08456,-90.0796 -35.04393,-76.1731 -37.77869,-24.2173 -78.74065,31.4969 -39.37034,-11.1566 -56.4297,41.9947 75.56511,49.6375 81.42154,-40.6492 8.15292,69.8623 -29.34385,28.5186 -12.09224,83.933 -39.86757,20.6118 -83.48475,-7.7323 -68.967921,-60.7026 47.187461,102.3997 83.28486,35.4777 25.23794,-0.164 -0.0297,-0.4219 h 65.81797 l 35.79746,50.8119 47.126,47.1234 h -0.006 0.009 l -67.17895,79.8836 -15.7394,23.606 61.66585,61.668 24.27682,-57.742 74.14257,-67.581 -21.45234,-97.9711 -37.86584,-49.8941 84.25111,-22.5775 12.58435,25.448 35.58733,98.1146 64.3699,-17.2491 61.90433,-5.5951 32.90895,-57.0011 -77.43611,-37.2844 -20.33492,28.8672 -30.17938,2.6247 -4.59031,-43.3041 -9.19096,-31.4867 6.56132,-19.0354 5.24642,-9.8367 106.94654,39.3623 82.01364,-62.3297 3.28316,-36.7408 -93.78288,-93.7851 -128.10924,34.326 -30.17938,-21.2164 -12.97138,-102.1921 87.56763,-72.9381 -5.90005,-9.465 -13.19948,-15.1986 -31.86842,-7.7887 z"
         style="fill:none;fill-opacity:1;fill-rule:evenodd;stroke:#000000;stroke-width:7.51200008;stroke-linecap:round;stroke-linejoin:round;stroke-miterlimit:4;stroke-dasharray:none;stroke-opacity:1" />
    </g>
    <g
       transform="rotate(120,13.852141,1396.5906)"
       id="g5638">
      <path
         style="fill:none;fill-opacity:1;fill-rule:evenodd;stroke:#000000;stroke-width:7.51200008;stroke-linecap:round;stroke-linejoin:round;stroke-miterlimit:4;stroke-dasharray:none;stroke-opacity:1"
         d="m 482.05455,1241.1615 -12.81758,27.4527 14.82952,32.0501 -71.00292,48.415 13.10209,21.5446 10.91073,89.8693 -65.08499,92.0688 18.08456,-90.0796 -35.04393,-76.1731 -37.77869,-24.2173 -78.74065,31.4969 -39.37034,-11.1566 -56.4297,41.9947 75.56511,49.6375 81.42154,-40.6492 8.15292,69.8623 -29.34385,28.5186 -12.09224,83.933 -39.86757,20.6118 -83.48475,-7.7323 -68.967921,-60.7026 47.187461,102.3997 83.28486,35.4777 25.23794,-0.164 -0.0297,-0.4219 h 65.81797 l 35.79746,50.8119 47.126,47.1234 h -0.006 0.009 l -67.17895,79.8836 -15.7394,23.606 61.66585,61.668 24.27682,-57.742 74.14257,-67.581 -21.45234,-97.9711 -37.86584,-49.8941 84.25111,-22.5775 12.58435,25.448 35.58733,98.1146 64.3699,-17.2491 61.90433,-5.5951 32.90895,-57.0011 -77.43611,-37.2844 -20.33492,28.8672 -30.17938,2.6247 -4.59031,-43.3041 -9.19096,-31.4867 6.56132,-19.0354 5.24642,-9.8367 106.94654,39.3623 82.01364,-62.3297 3.28316,-36.7408 -93.78288,-93.7851 -128.10924,34.326 -30.17938,-21.2164 -12.97138,-102.1921 87.56763,-72.9381 -5.90005,-9.465 -13.19948,-15.1986 -31.86842,-7.7887 z"
         id="path5636" />
    </g>
    <g
       transform="rotate(-120,286.06182,1981.4939)"
       id="g5642">
      <path
         style="fill:none;fill-opacity:1;fill-rule:evenodd;stroke:#000000;stroke-width:7.51200008;stroke-linecap:round;stroke-linejoin:round;stroke-miterlimit:4;stroke-dasharray:none;stroke-opacity:1"
         d="m 482.05455,1241.1615 -12.81758,27.4527 14.82952,32.0501 -71.00292,48.415 13.10209,21.5446 10.91073,89.8693 -65.08499,92.0688 18.08456,-90.0796 -35.04393,-76.1731 -37.77869,-24.2173 -78.74065,31.4969 -39.37034,-11.1566 -56.4297,41.9947 75.56511,49.6375 81.42154,-40.6492 8.15292,69.8623 -29.34385,28.5186 -12.09224,83.933 -39.86757,20.6118 -83.48475,-7.7323 -68.967921,-60.7026 47.187461,102.3997 83.28486,35.4777 25.23794,-0.164 -0.0297,-0.4219 h 65.81797 l 35.79746,50.8119 47.126,47.1234 h -0.006 0.009 l -67.17895,79.8836 -15.7394,23.606 61.66585,61.668 24.27682,-57.742 74.14257,-67.581 -21.45234,-97.9711 -37.86584,-49.8941 84.25111,-22.5775 12.58435,25.448 35.58733,98.1146 64.3699,-17.2491 61.90433,-5.5951 32.90895,-57.0011 -77.43611,-37.2844 -20.33492,28.8672 -30.17938,2.6247 -4.59031,-43.3041 -9.19096,-31.4867 6.56132,-19.0354 5.24642,-9.8367 106.94654,39.3623 82.01364,-62.3297 3.28316,-36.7408 -93.78288,-93.7851 -128.10924,34.326 -30.17938,-21.2164 -12.97138,-102.1921 87.56763,-72.9381 -5.90005,-9.465 -13.19948,-15.1986 -31.86842,-7.7887 z"
         id="path5640" />
    </g>
    <g
       transform="rotate(120,250.94174,1765.3457)"
       id="g5646">
      <path
         style="fill:none;fill-opacity:1;fill-rule:evenodd;stroke:#000000;stroke-width:7.51200008;stroke-linecap:round;stroke-linejoin:round;stroke-miterlimit:4;stroke-dasharray:none;stroke-opacity:1"
         d="m 482.05455,1241.1615 -12.81758,27.4527 14.82952,32.0501 -71.00292,48.415 13.10209,21.5446 10.91073,89.8693 -65.08499,92.0688 18.08456,-90.0796 -35.04393,-76.1731 -37.77869,-24.2173 -78.74065,31.4969 -39.37034,-11.1566 -56.4297,41.9947 75.56511,49.6375 81.42154,-40.6492 8.15292,69.8623 -29.34385,28.5186 -12.09224,83.933 -39.86757,20.6118 -83.48475,-7.7323 -68.967921,-60.7026 47.187461,102.3997 83.28486,35.4777 25.23794,-0.164 -0.0297,-0.4219 h 65.81797 l 35.79746,50.8119 47.126,47.1234 h -0.006 0.009 l -67.17895,79.8836 -15.7394,23.606 61.66585,61.668 24.27682,-57.742 74.14257,-67.581 -21.45234,-97.9711 -37.86584,-49.8941 84.25111,-22.5775 12.58435,25.448 35.58733,98.1146 64.3699,-17.2491 61.90433,-5.5951 32.90895,-57.0011 -77.43611,-37.2844 -20.33492,28.8672 -30.17938,2.6247 -4.59031,-43.3041 -9.19096,-31.4867 6.56132,-19.0354 5.24642,-9.8367 106.94654,39.3623 82.01364,-62.3297 3.28316,-36.7408 -93.78288,-93.7851 -128.10924,34.326 -30.17938,-21.2164 -12.97138,-102.1921 87.56763,-72.9381 -5.90005,-9.465 -13.19948,-15.1986 -31.86842,-7.7887 z"
         id="path5644" />
    </g>
  </g>
</svg>
